<svg enable-background="new 0 0 64 56" height="56" viewBox="0 0 64 56" width="64" xmlns="http://www.w3.org/2000/svg"><g transform="matrix(.5 0 0 .5 608 568)"><path d="m-1152-1088-64 32 64 32 64-32z" fill="#825012"/><path d="m-1152-1088-64 32 64 32 64-32z" fill="#825012"/><path d="m-1091.6-1057.8-.4-.2-4 2-3.6-1.8 4-2-.4-.2-12 6-3.6-1.8 12-6-.4-.2-4 2-3.6-1.8 4-2-.4-.2-12 6-3.6-1.8 12-6-.4-.2-4 2-3.6-1.8 4-2-.4-.2-12 6-3.6-1.8 12-6-.4-.2-4 2-3.6-1.8 4-2-.4-.2-12 6-3.6-1.8 12-6-.4-.2-4 2-3.6-1.8 4-2-.4-.2-12 6-3.6-1.8 12-6-.4-.2-4 2-3.6-1.8 4-2-.4-.2-12 6-3.6-1.8 12-6-.4-.2-4 2-3.6-1.8 4-2-.4-.2-12 6-3.6-1.8 12-6-.4-.2-4 2-3.6-1.8 4-2-.4-.2-64 32 .4.2 11.6-5.8 3.6 1.8-11.6 5.8.4.2 3.6-1.8 3.6 1.8-3.6 1.8.4.2 11.6-5.8 3.6 1.8-11.6 5.8.4.2 3.6-1.8 3.6 1.8-3.6 1.8.4.2 11.6-5.8 3.6 1.8-11.6 5.8.4.2 3.6-1.8 3.6 1.8-3.6 1.8.4.2 11.6-5.8 3.6 1.8-11.6 5.8.4.2 3.6-1.8 3.6 1.8-3.6 1.8.4.2 11.6-5.8 3.6 1.8-11.6 5.8.4.2 3.6-1.8 3.6 1.8-3.6 1.8.4.2 11.6-5.8 3.6 1.8-11.6 5.8.4.2 3.6-1.8 3.6 1.8-3.6 1.8.4.2 11.6-5.8 3.6 1.8-11.6 5.8.4.2 3.6-1.8 3.6 1.8-3.6 1.8.4.2 11.6-5.8 3.6 1.8-11.6 5.8.4.2 3.6-1.8 3.6 1.8.4-.2-3.6-1.8 15.6-7.8 3.6 1.8.4-.2-3.6-1.8 15.6-7.8 3.6 1.8.4-.2-3.6-1.8 15.6-7.8 3.6 1.8.4-.2-3.6-1.8zm-16.8 4-15.6 7.8-3.6-1.8 15.6-7.8zm-31.6 15.8-3.6-1.8 15.6-7.8 3.6 1.8zm-8-4-3.6-1.8 15.6-7.8 3.6 1.8zm-8-4-3.6-1.8 15.6-7.8 3.6 1.8zm-8-4-3.6-1.8 15.6-7.8 3.6 1.8zm-8-4-3.6-1.8 15.6-7.8 3.6 1.8zm-8-4-3.6-1.8 15.6-7.8 3.6 1.8zm-8-4-3.6-1.8 15.6-7.8 3.6 1.8zm24-11.6 3.6 1.8-15.6 7.8-3.6-1.8zm8 4 3.6 1.8-15.6 7.8-3.6-1.8zm8 4 3.6 1.8-15.6 7.8-3.6-1.8zm8 4 3.6 1.8-15.6 7.8-3.6-1.8zm8 4 3.6 1.8-15.6 7.8-3.6-1.8zm8 4 3.6 1.8-15.6 7.8-3.6-1.8zm16-8 3.6 1.8-15.6 7.8-3.6-1.8zm-8.4 3.8-15.6 7.8-3.6-1.8 15.6-7.8zm.4-7.8 3.6 1.8-15.6 7.8-3.6-1.8zm-8.4 3.8-15.6 7.8-3.6-1.8 15.6-7.8zm.4-7.8 3.6 1.8-15.6 7.8-3.6-1.8zm-8.4 3.8-15.6 7.8-3.6-1.8 15.6-7.8zm.4-7.8 3.6 1.8-15.6 7.8-3.6-1.8zm-8.4 3.8-15.6 7.8-3.6-1.8 15.6-7.8zm.4-7.8 3.6 1.8-15.6 7.8-3.6-1.8zm-8.4 3.8-15.6 7.8-3.6-1.8 15.6-7.8zm.4-7.8 3.6 1.8-15.6 7.8-3.6-1.8zm-8.4 3.8-15.6 7.8-3.6-1.8 15.6-7.8zm.4-7.8 3.6 1.8-15.6 7.8-3.6-1.8zm-16 8 3.6 1.8-15.6 7.8-3.6-1.8zm-31.6 15.8 15.6-7.8 3.6 1.8-15.6 7.8zm-.4 7.8-3.6-1.8 15.6-7.8 3.6 1.8zm8.4-3.8 15.6-7.8 3.6 1.8-15.6 7.8zm-.4 7.8-3.6-1.8 15.6-7.8 3.6 1.8zm8.4-3.8 15.6-7.8 3.6 1.8-15.6 7.8zm-.4 7.8-3.6-1.8 15.6-7.8 3.6 1.8zm8.4-3.8 15.6-7.8 3.6 1.8-15.6 7.8zm-.4 7.8-3.6-1.8 15.6-7.8 3.6 1.8zm8.4-3.8 15.6-7.8 3.6 1.8-15.6 7.8zm-.4 7.8-3.6-1.8 15.6-7.8 3.6 1.8zm8.4-3.8 15.6-7.8 3.6 1.8-15.6 7.8zm-.4 7.8-3.6-1.8 15.6-7.8 3.6 1.8zm8.4-3.8 15.6-7.8 3.6 1.8-15.6 7.8zm-.4 7.8-3.6-1.8 15.6-7.8 3.6 1.8zm12-2-3.6-1.8 15.6-7.8 3.6 1.8zm16-8-3.6-1.8 15.6-7.8 3.6 1.8zm16-8-3.6-1.8 15.6-7.8 3.6 1.8z" opacity=".2"/></g><g transform="matrix(1.5 0 0 1.5 616 572)"><path d="m-389.3-362.7 16 8-16 8-16-8z" fill="#339"/><path d="m-389.3-361.7 14 7-14 7-14-7z" fill="#939"/></g><g transform="translate(640 544)"><path d="m-608-520 32 16v-24l-32-16z" fill="#762c07"/><path d="m-608-520 32 16v-24l-32-16z" fill="#762c07"/><path d="m-604-521-3-1.5v2l3 1.5zm4 2-3-1.5v2l3 1.5zm4 2-3-1.5v2l3 1.5zm4 2-3-1.5v2l3 1.5zm4 2-3-1.5v2l3 1.5zm4 2-3-1.5v2l3 1.5zm4 2-3-1.5v2l3 1.5zm4 2-3-1.5v2l3 1.5zm-30-18-2-1v2l2 1zm1 2.5 3 1.5v-2l-3-1.5zm4 2 3 1.5v-2l-3-1.5zm4 2 3 1.5v-2l-3-1.5zm4 2 3 1.5v-2l-3-1.5zm4 2 3 1.5v-2l-3-1.5zm4 2 3 1.5v-2l-3-1.5zm7 1.5-3-1.5v2l3 1.5zm1 2.5 1 .5v-2l-1-.5zm-30-18 3 1.5v-2l-3-1.5zm4 2 3 1.5v-2l-3-1.5zm4 2 3 1.5v-2l-3-1.5zm4 2 3 1.5v-2l-3-1.5zm4 2 3 1.5v-2l-3-1.5zm4 2 3 1.5v-2l-3-1.5zm4 2 3 1.5v-2l-3-1.5zm4 2 3 1.5v-2l-3-1.5zm-27-18.5-2-1v2l2 1zm4 2-3-1.5v2l3 1.5zm1 2.5 3 1.5v-2l-3-1.5zm4 2 3 1.5v-2l-3-1.5zm4 2 3 1.5v-2l-3-1.5zm4 2 3 1.5v-2l-3-1.5zm7 1.5-3-1.5v2l3 1.5zm4 2-3-1.5v2l3 1.5zm1 2.5 1 .5v-2l-1-.5zm-30-18 3 1.5v-2l-3-1.5zm4 2 3 1.5v-2l-3-1.5zm4 2 3 1.5v-2l-3-1.5zm4 2 3 1.5v-2l-3-1.5zm4 2 3 1.5v-2l-3-1.5zm4 2 3 1.5v-2l-3-1.5zm4 2 3 1.5v-2l-3-1.5zm4 2 3 1.5v-2l-3-1.5zm-27-18.5-2-1v2l2 1zm4 2-3-1.5v2l3 1.5zm4 2-3-1.5v2l3 1.5zm4 2-3-1.5v2l3 1.5zm4 2-3-1.5v2l3 1.5zm4 2-3-1.5v2l3 1.5zm4 2-3-1.5v2l3 1.5zm4 2-3-1.5v2l3 1.5zm1 2.5 1 .5v-2l-1-.5zm-30-18 3 1.5v-2l-3-1.5zm4 2 3 1.5v-2l-3-1.5zm7 1.5-3-1.5v2l3 1.5zm4 2-3-1.5v2l3 1.5zm4 2-3-1.5v2l3 1.5zm4 2-3-1.5v2l3 1.5zm4 2-3-1.5v2l3 1.5zm1 2.5 3 1.5v-2l-3-1.5zm-29-19.5v2l2 1v-2zm3 3.5 3 1.5v-2l-3-1.5zm4 2 3 1.5v-2l-3-1.5zm4 2 3 1.5v-2l-3-1.5zm4 2 3 1.5v-2l-3-1.5zm4 2 3 1.5v-2l-3-1.5zm4 2 3 1.5v-2l-3-1.5zm4 2 3 1.5v-2l-3-1.5zm4 2 1 .5v-2l-1-.5z" fill="#baa794" opacity=".5"/><path d="m-576-504-32-16v-24l32 16z" opacity=".11"/></g><g transform="matrix(-1 0 0 1 640 544)"><path d="m608-544 32 16v24l-32-16z" fill="#fff"/><path d="m608-544 32 16v24l-32-16z" fill="#fff"/><g fill="#e5e5e5"><path d="m622-513v-24l-1-.5v24z"/><path d="m618-515v-24l-1-.5v24z"/><path d="m614-517v-24l-1-.5v24z"/><path d="m610-519v-24l-1-.5v24z"/><path d="m638-505v-24l-1-.5v24z"/><path d="m634-507v-24l-1-.5v24z"/><path d="m630-509v-24l-1-.5v24z"/><path d="m626-511v-24l-1-.5v24z"/></g><path d="m640-504-32-16v-24l32 16z" opacity=".29"/></g><g transform="matrix(.1 0 0 .1 640 544)"><path d="m-5996.7-5363.3c-11.9-5.9-24.8-4.8-34.9 1-12.8 5.5-22.4 18.1-22.4 34v145.3l100 50v-.2l4-1.8v-152.8c0-32-18.1-61.2-46.7-75.5z" fill="#f8ebcb"/><path d="m-6044-5178 80 40v-144.4c0-27.9-15.8-53.5-40.8-66-18-9-39.2 4.1-39.2 24.2z" fill="#762c07"/><path d="m-6038-5181v-146.1c0-9.7 5-17.8 12.1-22.6-10.2 3.7-18.1 13.3-18.1 25.6v146.1l80 40v-6z" opacity=".3"/><path d="m-5954-5133 4-2v-153l-4 2z" opacity=".29"/><g fill="#825012"><path d="m-5998-5335v40l28 14v-13.1c0-16.5-9.3-31.6-24.1-39z"/><path d="m-6032-5323v11l28 14v-39.9l-2.1-1.1c-11.9-5.9-25.9 2.7-25.9 16z"/><path d="m-5998-5289v36l28 14v-36z"/><path d="m-5998-5247v36l28 14v-36z"/><path d="m-5998-5205v36l28 14v-36z"/><path d="m-6032-5306v36l28 14v-36z"/><path d="m-6032-5264v36l28 14v-36z"/><path d="m-6032-5222v36l28 14v-36z"/></g><path d="m-5998-5335v40l28 14v-13.1c0-16.5-9.3-31.6-24.1-39zm24 48-20-10v-32c12.3 6.1 20 18.7 20 32.4z" opacity=".3"/><path d="m-6032-5323v11l28 14v-39.9l-2.1-1.1c-11.9-5.9-25.9 2.7-25.9 16zm24 19-20-10v-9.6c0-10.3 10.8-17 20-12.4z" opacity=".3"/><path d="m-5998-5289v36l28 14v-36zm24 44-20-10v-28l20 10z" opacity=".3"/><path d="m-5998-5247v36l28 14v-36zm24 44-20-10v-28l20 10z" opacity=".3"/><path d="m-5998-5205v36l28 14v-36zm24 44-20-10v-28l20 10z" opacity=".3"/><path d="m-6032-5306v36l28 14v-36zm24 44-20-10v-28l20 10z" opacity=".3"/><path d="m-6032-5264v36l28 14v-36zm24 44-20-10v-28l20 10z" opacity=".3"/><path d="m-5976-5240 8 4v-6l4 2v21l-4-2v-12l-8-4z" fill="#999"/><path d="m-6032-5222v36l28 14v-36zm24 44-20-10v-28l20 10z" opacity=".3"/><path d="m-5954-5133-100-50v-145.3c0-27.4 28.8-45.2 53.3-33 28.6 14.3 46.7 43.5 46.7 75.5z" opacity=".11"/></g><g transform="matrix(.1 0 0 .1 620 568)"><path d="m-6080-5320 40 20 120-60-40-20z" opacity=".2"/><path d="m-5936-5419v59l8 4 8-4v-59l-8-4z" fill="#762c07"/><path d="m-5928-5356-8-4v-59l8 4z" opacity=".11"/><path d="m-5928-5356 8-4v-59l-8 4z" opacity=".29"/><path d="m-5968-5435v59l8 4 8-4v-59l-8-4z" fill="#762c07"/><path d="m-5960-5372-8-4v-59l8 4z" opacity=".11"/><path d="m-5960-5372 8-4v-59l-8 4z" opacity=".29"/><path d="m-6048-5365v61l8 4 8-4v-61l-8-4z" fill="#762c07"/><path d="m-6040-5300-8-4v-61l8 4z" opacity=".11"/><path d="m-6040-5300 8-4v-61l-8 4z" opacity=".29"/><path d="m-6080-5379v59l8 4 8-4v-59l-8-4z" fill="#762c07"/><path d="m-6072-5316-8-4v-59l8 4z" opacity=".11"/><path d="m-6072-5316 8-4v-59l-8 4z" opacity=".29"/><path d="m-6080-5380v10l40 20 120-60v-10l-40-20z" fill="#762c07"/><path d="m-6040-5350-40-20v-10l40 20z" opacity=".11"/><path d="m-6040-5350 120-60v-10l-120 60z" opacity=".29"/></g><g transform="matrix(.1 0 0 .1 620 552)"><path d="m-6020-5237v2l10 5 40-20v-2l-10-5z" fill="#2d3134"/><path d="m-6020-5237v2l10 5v-2z" opacity=".11"/><path d="m-5970-5252-40 20v2l40-20z" opacity=".29"/><path d="m-6002-5250v7l2 1 14-7v-7l-2-1z" fill="#2d3134"/><path d="m-6002-5250v7l2 1v-7z" opacity=".11"/><path d="m-5986-5256-14 7v7l14-7z" opacity=".29"/><path d="m-6060-5320v100l4 2 120-60v-100l-4-2z" fill="#2d3134"/><path d="m-6052-5316 112-56v88l-112 56z" fill="#36c"/><path d="m-6052-5316 112-56v64z" fill="#fff" opacity=".15"/><path d="m-5936-5378-120 60v100l120-60z" opacity=".29"/><path d="m-6060-5320v100l4 2v-100z" opacity=".11"/><path d="m-5988-5258-10 5v3l10-5z" opacity=".5"/></g><g transform="matrix(-.1 0 0 .1 664 560)"><path d="m6190-5210 80-40-60-30-80 40z" opacity=".2"/><path d="m6188-5211 2 1 2-1 2-17-4-2-4 2z" fill="#762c07"/><path d="m6188-5211 2 1v-16l-4-2z" opacity=".29"/><path d="m6190-5210 2-1 2-17-4 2z" opacity=".11"/><path d="m6266-5250 2 1 2-1v-16l-4-2-4 2z" fill="#762c07"/><path d="m6266-5250 2 1-2-15-4-2z" opacity=".29"/><path d="m6268-5249 2-1v-16l-4 2z" opacity=".11"/><path d="m6130-5240 2 1 2-1 4-16-4-2-4 2z" fill="#762c07"/><path d="m6130-5240 2 1 2-15-4-2z" opacity=".29"/><path d="m6132-5239 2-1 4-16-4 2z" opacity=".11"/><path d="m6130-5260v6l60 30 80-40v-6l-60-30z" fill="#762c07"/><path d="m6190-5224-60-30v-6l60 30z" opacity=".29"/><path d="m6190-5224 80-40v-6l-80 40z" opacity=".11"/><path d="m6130-5282v24l60 30 80-40v-24l-60-30z" fill="#e5e5e5"/><path d="m6190-5228-60-30v-24l60 30z" opacity=".29"/><path d="m6190-5228 80-40v-24l-80 40z" opacity=".11"/><path d="m6200-5332v15l60 30 10-5v-15l-60-30z" fill="#e5e5e5"/><path d="m6260-5287-60-30v-15l60 30z" opacity=".29"/><path d="m6260-5287 10-5v-15l-10 5z" opacity=".11"/><path d="m6140-5332v45l12 6 60-30v-45l-12-6z" fill="#e5e5e5"/><path d="m6152-5281-12-6v-45l12 6z" opacity=".29"/><path d="m6152-5281 60-30v-45l-60 30z" opacity=".11"/><path d="m6130-5297v15l60 30 10-5v-15l-60-30z" fill="#e5e5e5"/><path d="m6190-5252-60-30v-15l60 30z" opacity=".29"/><path d="m6190-5252 10-5v-15l-10 5z" opacity=".11"/><path d="m6201-5325c2.2-3.1 23.7-.5 34-3 5.5 4.2 6.8 28.8 4 33-5.3-1.7-31.2-.3-39 1 1.3-9.7 2.3-22.5 1-31z" fill="#939"/><path d="m6235.5-5327.6c4.9 5.1 3.2 25.5.5 29.6-5.3-1.7-28.2 2.7-36 4 7.8-1.3 33.7-2.7 39-1 2.7-4 1.6-27.3-3.5-32.6z" opacity=".15"/></g><g transform="matrix(.05 0 0 .05 634 575)"><path d="m-12160-10680 80 40 160-80-80-40z" opacity=".2"/><path d="m-12010-10835v80l80 40 10-5v-80l-80-40z" fill="#762c07"/><path d="m-11930-10715-80-40v-80l80 40z" opacity=".11"/><path d="m-11930-10795v80l10-5v-80z" opacity=".29"/><path d="m-12150-10765 140-70 80 40v4l-140 70-80-40z" fill="#36c" opacity=".3"/><path d="m-12070-10725 140-70v4l-140 70z" opacity=".29"/><path d="m-12160-10760v80l80 40 10-5v-80l-80-40z" fill="#762c07"/><path d="m-12080-10640-80-40v-80l80 40z" opacity=".11"/><path d="m-12080-10720v80l10-5v-80z" opacity=".29"/></g><g transform="matrix(.1 0 0 .1 632 572)"><path d="m-5970-5210 160-80-60-30-160 80z" opacity=".2"/><path d="m-5972-5211 2 1 2-1 2-17-4-2-4 2z" fill="#762c07"/><path d="m-5972-5211 2 1v-16l-4-2z" opacity=".11"/><path d="m-5970-5210 2-1 2-17-4 2z" opacity=".29"/><path d="m-5814-5290 2 1 2-1v-16l-4-2-4 2z" fill="#762c07"/><path d="m-5814-5290 2 1-2-15-4-2z" opacity=".11"/><path d="m-5812-5289 2-1v-16l-4 2z" opacity=".29"/><path d="m-6030-5240 2 1 2-1 4-16-4-2-4 2z" fill="#762c07"/><path d="m-6030-5240 2 1 2-15-4-2z" opacity=".11"/><path d="m-6028-5239 2-1 4-16-4 2z" opacity=".29"/><path d="m-6030-5260v6l60 30 160-80v-6l-60-30z" fill="#762c07"/><path d="m-5970-5224-60-30v-6l60 30z" opacity=".11"/><path d="m-5970-5224 160-80v-6l-160 80z" opacity=".29"/><path d="m-6030-5282v24l60 30 160-80v-24l-60-30z" fill="#e5e5e5"/><path d="m-5970-5228-60-30v-24l60 30z" opacity=".11"/><path d="m-5970-5228 160-80v-24l-160 80z" opacity=".29"/><path d="m-5880-5372v15l60 30 10-5v-15l-60-30z" fill="#e5e5e5"/><path d="m-5820-5327-60-30v-15l60 30z" opacity=".11"/><path d="m-5820-5327 10-5v-15l-10 5z" opacity=".29"/><path d="m-5900-5344v45l12 6 68-34v-45l-12-6z" fill="#e5e5e5"/><path d="m-5888-5293-12-6v-45l12 6z" opacity=".11"/><path d="m-5888-5293 68-34v-45l-68 34z" opacity=".29"/><path d="m-6000-5292c2.2-3.1 23.7-.5 34-3 5.5 4.2 6.8 28.8 4 33-5.3-1.7-26.5.5-36-6-2.8-9.5-.7-15.5-2-24z" fill="#939"/><path d="m-5972-5308v45l12 6 68-34v-45l-12-6z" fill="#e5e5e5"/><path d="m-5960-5257-12-6v-45l12 6z" opacity=".11"/><path d="m-5960-5257 68-34v-45l-68 34z" opacity=".29"/><path d="m-6030-5297v15l60 30 10-5v-15l-60-30z" fill="#e5e5e5"/><path d="m-5970-5252-60-30v-15l60 30z" opacity=".11"/><path d="m-5970-5252 10-5v-15l-10 5z" opacity=".29"/></g><g transform="matrix(.875 0 0 .875 608 560)"><path d="m-686.9-601.7c-1.7 0-3 .7-3 1.5v6c0 .8 1.3 1.5 3 1.5s3-.7 3-1.5v-6c0-.8-1.3-1.5-3-1.5z" fill="#f8ebcb"/><path d="m-686.9-598.7c-1.7 0-3-.7-3-1.5v6c0 .8 1.3 1.5 3 1.5s3-.7 3-1.5v-6c0 .8-1.3 1.5-3 1.5z" opacity=".2"/><ellipse cx="-686.9" cy="-600.2" fill="#825012" rx="2.3" ry=".9"/><path d="m-685.9-599.7.7-.5s.7-4.1.5-6.2-.4-3-.4-3-.7 2.7-.8 4.7 0 5 0 5z" fill="#9c3"/><path d="m-685.9-599.7.7-.5s.7-4.1.5-6.2-.4-2.5-.4-2.5-.5 2.2-.6 4.2-.2 5-.2 5z" fill="#28896d"/><path d="m-685.9-600.2.7.3s1.2-2.1 1.4-3.8.4-4.9.4-4.9-1.2 1.7-1.6 4.2-.9 4.2-.9 4.2z" fill="#28896d"/><path d="m-685.6-600 .8-.1s1.6-7 1.7-9.7-.7-5.7-.7-5.7-.4 5.3-.8 7.9-1 7.6-1 7.6z" fill="#9c3"/><g fill="#28896d"><path d="m-685.6-600 .8-.1s1.1-5.8 1.4-8.5c.4-3.4-.2-5.1-.2-5.1s-.4 3.6-.8 6.2-1.2 7.5-1.2 7.5z"/><path d="m-686.7-600.1.6.3.6-.4s-.4-4.4-.3-6.2.5-5.7.5-5.7-1.2 3-1.7 4.6.3 7.4.3 7.4z"/><path d="m-688.3-600.1.3.1.5-.6s.1-1.4-.3-3.2c-.5-1.9-2.4-5.5-2.4-5.5s.9 4.4 1.1 5.7c.3 1.4.8 3.5.8 3.5z"/><path d="m-688.7-599.7.2.1.3-.2s-.1-1.9-.4-3.1c-.3-1.3-1-3.1-1-3.1s.1 1.2.1 2.5.8 3.8.8 3.8z"/></g><path d="m-688.5-599.9.9-.2s-.2-3.2-1.5-5.4-2.4-3.7-2.4-3.7-.1 2.3 1.5 5.2 1.5 4.1 1.5 4.1z" fill="#9c3"/><path d="m-688.5-599.9.9-.2s-.3-3-1.5-5.1-2.2-3.3-2.2-3.3-.2 1.5 1.4 4.4 1.4 4.2 1.4 4.2z" fill="#28896d"/><path d="m-688.1-600.2 1-.2s-.4-3.9-1.3-6.4-2.9-5.1-2.9-5.1 1 3.8 1.5 5.3 1.7 6.4 1.7 6.4z" fill="#9c3"/><path d="m-688-599.9 1-.2s-.5-4.2-1.4-6.7-2.3-3.9-2.3-3.9.6 2.6 1.1 4.2 1.6 6.6 1.6 6.6z" fill="#28896d"/><path d="m-687.7-600.6h.8s.7-7.7.9-10.1.5-5.8.5-5.8-1.9 6.8-2.1 9.1c-.2 2.4-.1 6.8-.1 6.8z" fill="#9c3"/><path d="m-687.7-600.4.8-.2s.6-7.6.8-10 .4-4.3.4-4.3-1.4 5.4-1.6 7.7c-.3 2.4-.4 6.8-.4 6.8z" fill="#28896d"/><path d="m-687.2-599.9 1.1-.4s-.6-6.2-1.1-7.6c-.5-1.5-2.9-6.4-2.9-6.4s1.5 6.6 1.7 8.1 1.2 6.3 1.2 6.3z" fill="#9c3"/><path d="m-687.3-599.9 1.3-.3s-.9-6.4-1.4-7.8c-.5-1.5-2-4.8-2-4.8s1 5 1.2 6.5c.1 1.6.9 6.4.9 6.4z" fill="#28896d"/></g><g transform="matrix(.1 0 0 .1 656 552)"><path d="m-5995.3-5352.5-9.4-4.7c-13.3-6.7-25.3-6.9-33.6-1.9-9.6 3.5-15.7 12.7-15.7 26.4v94.7l100 50 4-1.9v-94.7c0-25-20.3-55.4-45.3-67.9z" fill="#f8ebcb"/><path d="m-6004-5343c22.1 11 40 37.9 40 60v80l-80-40v-80c0-22.1 17.9-31 40-20z" fill="#36c"/><path d="m-5964-5203-80-40v-80z" fill="#fff" opacity=".2"/><path d="m-6004-5343c-22.1-11-40-2.1-40 20v10c0-22.1 17.9-31 40-20s40 37.9 40 60v-10c0-22.1-17.9-49-40-60z" opacity=".15"/><path d="m-5982-5325.4c-3.1-3.6-6.4-6.9-10-9.8v116.5l-20-10v-117.5c-3.4-1-6.7-1.6-10-1.9v114.4l-20-10v-80c0-10.6 4.1-18.1 10.8-21.9.3-.2.7-.5 1-.7-8.4 3.1-13.8 11.2-13.8 23.3v80l80 40v-1.7l-18-9z" opacity=".2"/><path d="m-5962-5282-22-11v-40l-10-5v40l-20-10v-40l-10-5v40l-22-11v10l22 11v72l10 5v-72l20 10v72l10 5v-72l22 11z" fill="#f8ebcb"/><path d="m-6008.7-5355.3 9.4 4.7c25 12.5 45.3 42.9 45.3 68v94.6l-100-50v-94.7c0-25 20.3-35.1 45.3-22.6z" opacity=".11"/><path d="m-5954-5188 4-1.9v-95.1l-4 2z" opacity=".29"/></g></svg>