<svg enable-background="new 0 0 64 56" height="56" viewBox="0 0 64 56" width="64" xmlns="http://www.w3.org/2000/svg"><g transform="translate(32 24)"><path d="m0 0-16 8v-12l16-8z" fill="#e5e5e5"/><path d="m-8.5 4.3-7 3.5v-10.6l7-3.5z" fill="#39c"/><path d="m-8.5-4.3-7 3.5v-2l7-3.5z" fill="#262626" opacity=".15"/><path d="m-8.5-5.3-7 3.5v-1l7-3.5z" fill="#262626" opacity=".15"/><path d="m-8.5-5.8-7 3.5v-.5l7-3.5z" fill="#262626" opacity=".15"/><path d="m-8.5-2.8-7 3.6v-.5l7-3.6z" fill="#262626" opacity=".15"/><path d="m-8.5-3.8-2 1v-2.5l-.5.3v2.5l-2 1v-2.5l-.5.2v2.5l-2 1v.6l2-1.1v7.6l.5-.3v-7.5l2-1v7.5l.5-.2v-7.6l2-1z" fill="#fff" opacity=".7"/><path d="m-.5.3-7 3.5v-10.6l7-3.5z" fill="#39c"/><path d="m-.5-8.3-7 3.5v-2l7-3.5z" fill="#262626" opacity=".15"/><path d="m-.5-9.3-7 3.5v-1l7-3.5z" fill="#262626" opacity=".15"/><path d="m-.5-9.8-7 3.5v-.5l7-3.5z" fill="#262626" opacity=".15"/><path d="m-.5-6.8-7 3.5v-.5l7-3.5z" fill="#262626" opacity=".15"/><g fill="#fff"><path d="m-.5-7.8-2 1v-2.5l-.5.3v2.5l-2 1v-2.5l-.5.2v2.5l-2 1v.5l2-1v7.6l.5-.3v-7.5l2-1v7.5l.5-.2v-7.6l2-1z" opacity=".7"/><path d="m-3 1.5-2 1v-10.5l2-1z" opacity=".3"/><path d="m-.5.3-2 1v-10.6l2-1z" opacity=".2"/><path d="m-11 5.5-2 1v-10.5l2-1z" opacity=".2"/><path d="m-5.5 2.8-2 1v-10.6l2-1z" opacity=".1"/></g><path d="m0 0-16 8v-12l16-8z" opacity=".29"/></g><g transform="translate(0 40)"><path d="m16-8-16 8v-12l16-8z" fill="#e5e5e5"/><path d="m7.5-3.8-7 3.5v-10.5l7-3.5z" fill="#39c"/><path d="m7.5-12.3-7 3.5v-2l7-3.5z" fill="#262626" opacity=".15"/><path d="m7.5-13.3-7 3.5v-1l7-3.5z" fill="#262626" opacity=".15"/><path d="m7.5-13.8-7 3.5v-.5l7-3.5z" fill="#262626" opacity=".15"/><path d="m7.5-10.8-7 3.5v-.5l7-3.5z" fill="#262626" opacity=".15"/><path d="m7.5-11.8-2 1v-2.5l-.5.3v2.5l-2 1v-2.5l-.5.2v2.5l-2 1v.5l2-1v7.5l.5-.2v-7.5l2-1v7.5l.5-.3v-7.5l2-1z" fill="#fff" opacity=".7"/><path d="m15.5-7.8-7 3.5v-10.5l7-3.5z" fill="#39c"/><path d="m15.5-16.3-7 3.5v-2l7-3.5z" fill="#262626" opacity=".15"/><path d="m15.5-17.3-7 3.5v-1l7-3.5z" fill="#262626" opacity=".15"/><path d="m15.5-17.8-7 3.5v-.5l7-3.5z" fill="#262626" opacity=".15"/><path d="m15.5-14.8-7 3.5v-.5l7-3.5z" fill="#262626" opacity=".15"/><g fill="#fff"><path d="m15.5-15.8-2 1v-2.5l-.5.3v2.5l-2 1v-2.5l-.5.2v2.5l-2 1v.5l2-1v7.5l.5-.2v-7.5l2-1v7.5l.5-.3v-7.5l2-1z" opacity=".7"/><path d="m13-6.5-2 1v-10.5l2-1z" opacity=".3"/><path d="m15.5-7.8-2 1v-10.5l2-1z" opacity=".2"/><path d="m5-2.5-2 1v-10.5l2-1z" opacity=".2"/><path d="m10.5-5.3-2 1v-10.5l2-1z" opacity=".1"/></g><path d="m16-8-16 8v-12l16-8z" opacity=".29"/></g><g transform="translate(32)"><path d="m0 12-16 8v-12l16-8z" fill="#e5e5e5"/><path d="m-8.5 16.3-7 3.5v-10.5l7-3.5z" fill="#39c"/><path d="m-8.5 7.8-7 3.5v-2l7-3.5z" fill="#262626" opacity=".15"/><path d="m-8.5 6.8-7 3.5v-1l7-3.5z" fill="#262626" opacity=".15"/><path d="m-8.5 6.3-7 3.5v-.5l7-3.5z" fill="#262626" opacity=".15"/><path d="m-8.5 9.3-7 3.5v-.5l7-3.5z" fill="#262626" opacity=".15"/><path d="m-8.5 8.3-2 1v-2.5l-.5.2v2.5l-2 1v-2.5l-.5.3v2.5l-2 1v.5l2-1v7.5l.5-.3v-7.5l2-1v7.5l.5-.2v-7.5l2-1z" fill="#fff" opacity=".7"/><path d="m-.5 12.3-7 3.5v-10.5l7-3.5z" fill="#39c"/><path d="m-.5 3.8-7 3.5v-2l7-3.5z" fill="#262626" opacity=".15"/><path d="m-.5 2.8-7 3.5v-1l7-3.5z" fill="#262626" opacity=".15"/><path d="m-.5 2.3-7 3.5v-.5l7-3.5z" fill="#262626" opacity=".15"/><path d="m-.5 5.3-7 3.5v-.5l7-3.5z" fill="#262626" opacity=".15"/><g fill="#fff"><path d="m-.5 4.3-2 1v-2.5l-.5.2v2.5l-2 1v-2.5l-.5.3v2.5l-2 1v.5l2-1v7.5l.5-.3v-7.5l2-1v7.5l.5-.2v-7.5l2-1z" opacity=".7"/><path d="m-3 13.5-2 1v-10.5l2-1z" opacity=".3"/><path d="m-.5 12.3-2 1v-10.5l2-1z" opacity=".2"/><path d="m-11 17.5-2 1v-10.5l2-1z" opacity=".2"/><path d="m-5.5 14.8-2 1v-10.5l2-1z" opacity=".1"/></g><path d="m0 12-16 8v-12l16-8z" opacity=".29"/></g><g transform="translate(0 16)"><path d="m16 4-16 8v-12l16-8z" fill="#e5e5e5"/><path d="m7.5 8.3-7 3.5v-10.5l7-3.6z" fill="#39c"/><path d="m7.5-.3-7 3.6v-2l7-3.6z" fill="#262626" opacity=".15"/><path d="m7.5-1.3-7 3.6v-1l7-3.6z" fill="#262626" opacity=".15"/><path d="m7.5-1.8-7 3.6v-.5l7-3.6z" fill="#262626" opacity=".15"/><path d="m7.5 1.3-7 3.5v-.5l7-3.5z" fill="#262626" opacity=".15"/><path d="m7.5.3-2 1v-2.6l-.5.3v2.5l-2 1v-2.5l-.5.3v2.5l-2 1v.5l2-1v7.5l.5-.3v-7.5l2-1v7.5l.5-.2v-7.5l2-1z" fill="#fff" opacity=".7"/><path d="m15.5 4.3-7 3.5v-10.6l7-3.5z" fill="#39c"/><path d="m15.5-4.3-7 3.5v-2l7-3.5z" fill="#262626" opacity=".15"/><path d="m15.5-5.3-7 3.5v-1l7-3.5z" fill="#262626" opacity=".15"/><path d="m15.5-5.8-7 3.5v-.5l7-3.5z" fill="#262626" opacity=".15"/><path d="m15.5-2.8-7 3.6v-.5l7-3.6z" fill="#262626" opacity=".15"/><g fill="#fff"><path d="m15.5-3.8-2 1v-2.5l-.5.3v2.5l-2 1v-2.5l-.5.2v2.5l-2 1v.6l2-1.1v7.6l.5-.3v-7.5l2-1v7.5l.5-.2v-7.6l2-1z" opacity=".7"/><path d="m13 5.5-2 1v-10.5l2-1z" opacity=".3"/><path d="m15.5 4.3-2 1v-10.6l2-1z" opacity=".2"/><path d="m5 9.5-2 1v-10.5l2-1z" opacity=".2"/><path d="m10.5 6.8-2 1v-10.6l2-1z" opacity=".1"/></g><path d="m16 4-16 8v-12l16-8z" opacity=".29"/></g><g transform="matrix(2 0 0 2 64 0)"><path d="m-16 0 16 8v12l-16-8z" fill="#e5e5e5"/><path d="m0 20-16-8v-.5l16 8z" fill="#999"/><path d="m0 20-16-8v-12l16 8z" opacity=".11"/></g><g transform="translate(64 6)"><path d="m-32 9 8 4v-12l-8-4z" fill="#e5e5e5"/><path d="m-31.5 9.3 7 3.5v-10.5l-7-3.6z" fill="#39c"/><g fill="#262626"><path d="m-31.5.8 7 3.5v-2l-7-3.6z" opacity=".15"/><path d="m-31.5-.3 7 3.6v-1l-7-3.6z" opacity=".15"/><path d="m-31.5-.8 7 3.6v-.5l-7-3.6z" opacity=".15"/><path d="m-31.5 2.3 7 3.5v-.5l-7-3.5z" opacity=".15"/></g><path d="m-31.5 1.3 2 1v-2.6l.5.3v2.5l2 1v-2.5l.5.3v2.5l2 1v.5l-2-1v7.5l-.5-.3v-7.5l-2-1v7.5l-.5-.2v-7.5l-2-1z" fill="#fff" opacity=".7"/><path d="m-29 10.5 2 1v-10.5l-2-1z" fill="#fff" opacity=".2"/><path d="m-32 9 8 4v-12l-8-4z" opacity=".11"/></g><g transform="translate(0 48)"><path d="m32-24-32 16 32 16 32-16z" fill="#999"/><path d="m32-24-32 16 32 16 32-16z" fill="#999"/><path d="m62.2-8.9-.2-.1-2 1-1.8-.9 2-1-.2-.1-6 3-1.8-.9 6-3-.2-.1-2 1-1.8-.9 2-1-.2-.1-6 3-1.8-.9 6-3-.2-.1-2 1-1.8-.9 2-1-.2-.1-6 3-1.8-.9 6-3-.2-.1-2 1-1.8-.9 2-1-.2-.1-6 3-1.8-.9 6-3-.2-.1-2 1-1.8-.9 2-1-.2-.1-6 3-1.8-.9 6-3-.2-.1-2 1-1.8-.9 2-1-.2-.1-6 3-1.8-.9 6-3-.2-.1-2 1-1.8-.9 2-1-.2-.1-6 3-1.8-.9 6-3-.2-.1-2 1-1.8-.9 2-1-.2-.1-32 16 .2.1 5.8-2.9 1.8.9-5.8 2.9.2.1 1.8-.9 1.8.9-1.8.9.2.1 5.8-2.9 1.8.9-5.8 2.9.2.1 1.8-.9 1.8.9-1.8.9.2.1 5.8-2.9 1.8.9-5.8 2.9.2.1 1.8-.9 1.8.9-1.8.9.2.1 5.8-2.9 1.8.9-5.8 2.9.2.1 1.8-.9 1.8.9-1.8.9.2.1 5.8-2.9 1.8.9-5.8 2.9.2.1 1.8-.9 1.8.9-1.8.9.2.1 5.8-2.9 1.8.9-5.8 2.9.2.1 1.8-.9 1.8.9-1.8.9.2.1 5.8-2.9 1.8.9-5.8 2.9.2.1 1.8-.9 1.8.9-1.8.9.2.1 5.8-2.9 1.8.9-5.8 2.9.2.1 1.8-.9 1.8.9.2-.1-1.8-.9 7.8-3.9 1.8.9.2-.1-1.8-.9 7.8-3.9 1.8.9.2-.1-1.8-.9 7.8-3.9 1.8.9.2-.1-1.8-.9zm-8.4 2-7.8 3.9-1.8-.9 7.8-3.9zm-15.8 7.9-1.8-.9 7.8-3.9 1.8.9zm-4-2-1.8-.9 7.8-3.9 1.8.9zm-4-2-1.8-.9 7.8-3.9 1.8.9zm-4-2-1.8-.9 7.8-3.9 1.8.9zm-4-2-1.8-.9 7.8-3.9 1.8.9zm-4-2-1.8-.9 7.8-3.9 1.8.9zm-4-2-1.8-.9 7.8-3.9 1.8.9zm12-5.8 1.8.9-7.8 3.9-1.8-.9zm4 2 1.8.9-7.8 3.9-1.8-.9zm4 2 1.8.9-7.8 3.9-1.8-.9zm4 2 1.8.9-7.8 3.9-1.8-.9zm4 2 1.8.9-7.8 3.9-1.8-.9zm4 2 1.8.9-7.8 3.9-1.8-.9zm8-4 1.8.9-7.8 3.9-1.8-.9zm-4.2 1.9-7.8 3.9-1.8-.9 7.8-3.9zm.2-3.9 1.8.9-7.8 3.9-1.8-.9zm-4.2 1.9-7.8 3.9-1.8-.9 7.8-3.9zm.2-3.9 1.8.9-7.8 3.9-1.8-.9zm-4.2 1.9-7.8 3.9-1.8-.9 7.8-3.9zm.2-3.9 1.8.9-7.8 3.9-1.8-.9zm-4.2 1.9-7.8 3.9-1.8-.9 7.8-3.9zm.2-3.9 1.8.9-7.8 3.9-1.8-.9zm-4.2 1.9-7.8 3.9-1.8-.9 7.8-3.9zm.2-3.9 1.8.9-7.8 3.9-1.8-.9zm-4.2 1.9-7.8 3.9-1.8-.9 7.8-3.9zm.2-3.9 1.8.9-7.8 3.9-1.8-.9zm-8 4 1.8.9-7.8 3.9-1.8-.9zm-15.8 7.9 7.8-3.9 1.8.9-7.8 3.9zm-.2 3.9-1.8-.9 7.8-3.9 1.8.9zm4.2-1.9 7.8-3.9 1.8.9-7.8 3.9zm-.2 3.9-1.8-.9 7.8-3.9 1.8.9zm4.2-1.9 7.8-3.9 1.8.9-7.8 3.9zm-.2 3.9-1.8-.9 7.8-3.9 1.8.9zm4.2-1.9 7.8-3.9 1.8.9-7.8 3.9zm-.2 3.9-1.8-.9 7.8-3.9 1.8.9zm4.2-1.9 7.8-3.9 1.8.9-7.8 3.9zm-.2 3.9-1.8-.9 7.8-3.9 1.8.9zm4.2-1.9 7.8-3.9 1.8.9-7.8 3.9zm-.2 3.9-1.8-.9 7.8-3.9 1.8.9zm4.2-1.9 7.8-3.9 1.8.9-7.8 3.9zm-.2 3.9-1.8-.9 7.8-3.9 1.8.9zm6-1-1.8-.9 7.8-3.9 1.8.9zm8-4-1.8-.9 7.8-3.9 1.8.9zm8-4-1.8-.9 7.8-3.9 1.8.9z" opacity=".2"/></g><g transform="translate(32 40)"><path d="m-8-8 2-1v-1l2-1v-1l2-1v-1l2-1v-1l-8-4-2 1v1l-2 1v1l-2 1v1l-2 1v1z" fill="#e5e5e5"/><path d="m-16-13 8 4v1l-8-4z" opacity=".11"/><path d="m-14-15 8 4v1l-8-4z" opacity=".11"/><path d="m-12-17 8 4v1l-8-4z" opacity=".11"/><path d="m-10-19 8 4v1l-8-4z" opacity=".11"/><path d="m-2-15v1l2-1v-1zm-2 2.5v.5l2-1v-1l-2 1zm-4 4.5 2-1v-1l-2 1zm2-2 2-1v-1l-2 1z" opacity=".29"/></g><g transform="translate(16 56)"><path d="m0-16 2-1v-1l2-1v-1l2-1v-1l2-1v-1l-8-4-2 1v1l-2 1v1l-2 1v1l-2 1v1z" fill="#e5e5e5"/><path d="m-8-21 8 4v1l-8-4z" opacity=".11"/><path d="m-6-23 8 4v1l-8-4z" opacity=".11"/><path d="m-4-25 8 4v1l-8-4z" opacity=".11"/><path d="m-2-27 8 4v1l-8-4z" opacity=".11"/><path d="m6-23v1l2-1v-1zm-2 2.5v.5l2-1v-1l-2 1zm-4 4.5 2-1v-1l-2 1zm2-2 2-1v-1l-2 1z" opacity=".29"/></g><g transform="translate(48 30)"><path d="m-16-6 8-4v-1l-8-4-8 4v1z" fill="#e5e5e5"/><path d="m-24-11 8 4v1l-8-4z" opacity=".11"/><path d="m-16-7v1l8-4v-1z" opacity=".29"/></g><g transform="translate(64)"><path d="m-32 12 8 4v-12l-8-4z" fill="#e5e5e5"/><path d="m-31.5 12.3 7 3.5v-10.5l-7-3.5z" fill="#39c"/><g fill="#262626"><path d="m-31.5 3.8 7 3.5v-2l-7-3.5z" opacity=".15"/><path d="m-31.5 2.8 7 3.5v-1l-7-3.5z" opacity=".15"/><path d="m-31.5 2.3 7 3.5v-.5l-7-3.5z" opacity=".15"/><path d="m-31.5 5.3 7 3.5v-.5l-7-3.5z" opacity=".15"/></g><path d="m-31.5 4.3 2 1v-2.5l.5.2v2.5l2 1v-2.5l.5.3v2.5l2 1v.5l-2-1v7.5l-.5-.3v-7.5l-2-1v7.5l-.5-.2v-7.5l-2-1z" fill="#fff" opacity=".7"/><path d="m-29 13.5 2 1v-10.5l-2-1z" fill="#fff" opacity=".2"/><path d="m-32 12 8 4v-12l-8-4z" opacity=".11"/></g><g transform="matrix(-1 0 0 1 88 20)"><path d="m44-2v4l4 2 4-2v-4l-4-2z" fill="#656565"/><path d="m48 4-4-2v-4l4 2z" opacity=".29"/><path d="m48 4 4-2v-4l-4 2z" opacity=".11"/><path d="m45-2.4-.6-4.5 1.5 3.8s.3-4.9.3-4.9.2 4.8.2 4.8l.5-5 .8 5.8.7-6.4.4 6.8.8-6.8-.2 6 2-5.2-2 6.3 2.2-4.8-1.6 4.2 2-3.7-1.5 4.3-2.5 1.2z" fill="#9c3"/><path d="m45.3-2.2 2.7 1.3 2.7-1.2 1.3-4.7-1.4 3.5.6-4.4-1.1 3.9-.3-4.6-.5 5.6-.9-5.6.1 5.7-1.5-5.3.3 5.6-1.3-5 .5 5.3-1.6-4.7.8 4.4-1.7-4.7z" fill="#539b00"/><path d="m46.9-2.4-1.2-3.2 1.3 2.8-.1-4.7.4 4.7.6-5.6v5.9l1.3-3.4-1 4.1z" fill="#539b00"/><path d="m44.7-2.2-.7-4.1.8 3.3-.1-5.6.4 6 .5-5.5v5.9l1.2-3.4-1 4.2z" fill="#9c3"/><path d="m50.1-1.3 1.3-.6.6-3.2-1 2.8.8-6-1.1 6.2-.7-6.5.4 6.5-1.6-5z" fill="#9c3"/><g fill="#539b00"><path d="m47.2-.7-.9-.6-1.1-5.4 1.2 5.1.1-7.3.2 7.5 1.3-8.1-1 8.2 2.2-6.8z"/><path d="m48.9-.6.8-.5 2-5.8-2.2 5.5 1.5-7.8-1.7 7.8-.1-8.2v8.5l-2-7.8 1.7 8-2.5-6.4z"/><path d="m44.9-1.9.4.3 1-3.8-1.1 3.2v-5.1l-.2 4.9-1-2.5z"/></g><path d="m48-.2.5-.2 1.5-4.8-1.5 3.8.5-5-.8 4.8-.2-6.1v6.6l-1-5.5.7 5.5-1.1-3.7.8 4.2z" fill="#9c3"/></g><g transform="matrix(-1 0 0 1 80 24)"><path d="m40-4v4l4 2 4-2v-4l-4-2z" fill="#656565"/><path d="m44 2-4-2v-4l4 2z" opacity=".29"/><path d="m44 2 4-2v-4l-4 2z" opacity=".11"/><path d="m41-4.4-.6-4.5 1.5 3.8s.3-4.9.3-4.9.2 4.8.2 4.8l.5-5 .8 5.8.7-6.4.4 6.8.8-6.8-.2 6 2-5.2-2 6.3 2.2-4.8-1.6 4.2 2-3.7-1.5 4.3-2.5 1.2z" fill="#9c3"/><path d="m41.3-4.2 2.7 1.3 2.7-1.2 1.3-4.7-1.4 3.5.6-4.4-1.1 3.9-.3-4.6-.5 5.6-.9-5.6.1 5.7-1.5-5.3.3 5.6-1.3-5 .5 5.3-1.6-4.7.8 4.4-1.7-4.7z" fill="#539b00"/><path d="m42.9-4.4-1.2-3.2 1.3 2.8-.1-4.7.4 4.7.6-5.6v5.9l1.3-3.4-1 4.1z" fill="#539b00"/><path d="m40.7-4.2-.7-4.1.8 3.3-.1-5.6.4 6 .5-5.5v5.9l1.2-3.4-1 4.2z" fill="#9c3"/><path d="m46.1-3.3 1.3-.6.6-3.2-1 2.8.8-6-1.1 6.2-.7-6.5.4 6.5-1.6-5z" fill="#9c3"/><g fill="#539b00"><path d="m43.2-2.7-.9-.6-1.1-5.4 1.2 5.1.1-7.3.2 7.5 1.3-8.1-1 8.2 2.2-6.8z"/><path d="m44.9-2.6.8-.5 2-5.8-2.2 5.5 1.5-7.8-1.7 7.8-.1-8.2v8.5l-2-7.8 1.7 8-2.5-6.4z"/><path d="m40.9-3.9.4.3 1-3.8-1.1 3.2v-5.1l-.2 4.9-1-2.5z"/></g><path d="m44-2.2.5-.2 1.5-4.8-1.5 3.8.5-5-.8 4.8-.2-6.1v6.6l-1-5.5.7 5.5-1.1-3.7.8 4.2z" fill="#9c3"/></g><g transform="matrix(-1 0 0 1 72 28)"><path d="m36-6v4l4 2 4-2v-4l-4-2z" fill="#656565"/><path d="m40 0-4-2v-4l4 2z" opacity=".29"/><path d="m40 0 4-2v-4l-4 2z" opacity=".11"/><path d="m37-6.4-.6-4.5 1.5 3.8s.3-4.9.3-4.9.2 4.8.2 4.8l.5-5 .8 5.8.7-6.4.4 6.8.8-6.8-.2 6 2-5.2-2 6.3 2.2-4.8-1.6 4.2 2-3.7-1.5 4.3-2.5 1.2z" fill="#9c3"/><path d="m37.3-6.2 2.7 1.3 2.7-1.2 1.3-4.7-1.4 3.5.6-4.4-1.1 3.9-.3-4.6-.5 5.6-.9-5.6.1 5.7-1.5-5.3.3 5.6-1.3-5 .5 5.3-1.6-4.7.8 4.4-1.7-4.7z" fill="#539b00"/><path d="m38.9-6.4-1.2-3.2 1.3 2.8-.1-4.7.4 4.7.6-5.6v5.9l1.3-3.4-1 4.1z" fill="#539b00"/><path d="m36.7-6.2-.7-4.1.8 3.3-.1-5.6.4 6 .5-5.5v5.9l1.2-3.4-1 4.2z" fill="#9c3"/><path d="m42.1-5.3 1.3-.6.6-3.2-1 2.8.8-6-1.1 6.2-.7-6.5.4 6.5-1.6-5z" fill="#9c3"/><g fill="#539b00"><path d="m39.2-4.7-.9-.6-1.1-5.4 1.2 5.1.1-7.3.2 7.5 1.3-8.1-1 8.2 2.2-6.8z"/><path d="m40.9-4.6.8-.5 2-5.8-2.2 5.5 1.5-7.8-1.7 7.8-.1-8.2v8.5l-2-7.8 1.7 8-2.5-6.4z"/><path d="m36.9-5.9.4.3 1-3.8-1.1 3.2v-5.1l-.2 4.9-1-2.5z"/></g><path d="m40-4.2.5-.2 1.5-4.8-1.5 3.8.5-5-.8 4.8-.2-6.1v6.6l-1-5.5.7 5.5-1.1-3.7.8 4.2z" fill="#9c3"/></g><g transform="matrix(-1 0 0 1 64 32)"><path d="m32-8v4l4 2 4-2v-4l-4-2z" fill="#656565"/><path d="m36-2-4-2v-4l4 2z" opacity=".29"/><path d="m36-2 4-2v-4l-4 2z" opacity=".11"/><path d="m33-8.4-.6-4.5 1.5 3.8s.3-4.9.3-4.9.2 4.8.2 4.8l.5-5 .8 5.8.7-6.4.4 6.8.8-6.8-.2 6 2-5.2-2 6.3 2.2-4.8-1.6 4.2 2-3.7-1.5 4.3-2.5 1.2z" fill="#9c3"/><path d="m33.3-8.2 2.7 1.3 2.7-1.2 1.3-4.7-1.4 3.5.6-4.4-1.1 3.9-.3-4.6-.5 5.6-.9-5.6.1 5.7-1.5-5.3.3 5.6-1.3-5 .5 5.3-1.6-4.7.8 4.4-1.7-4.7z" fill="#539b00"/><path d="m34.9-8.4-1.2-3.2 1.3 2.8-.1-4.7.4 4.7.6-5.6v5.9l1.3-3.4-1 4.1z" fill="#539b00"/><path d="m32.7-8.2-.7-4.1.8 3.3-.1-5.6.4 6 .5-5.5v5.9l1.2-3.4-1 4.2z" fill="#9c3"/><path d="m38.1-7.3 1.3-.6.6-3.2-1 2.8.8-6-1.1 6.2-.7-6.5.4 6.5-1.6-5z" fill="#9c3"/><g fill="#539b00"><path d="m35.2-6.7-.9-.6-1.1-5.4 1.2 5.1.1-7.3.2 7.5 1.3-8.1-1 8.2 2.2-6.8z"/><path d="m36.9-6.6.8-.5 2-5.8-2.2 5.5 1.5-7.8-1.7 7.8-.1-8.2v8.5l-2-7.8 1.7 8-2.5-6.4z"/><path d="m32.9-7.9.4.3 1-3.8-1.1 3.2v-5.1l-.2 4.9-1-2.5z"/></g><path d="m36-6.2.5-.2 1.5-4.8-1.5 3.8.5-5-.8 4.8-.2-6.1v6.6l-1-5.5.7 5.5-1.1-3.7.8 4.2z" fill="#9c3"/></g><g transform="matrix(-1 0 0 1 56 44)"><path d="m28-14v4l4 2 4-2v-4l-4-2z" fill="#656565"/><path d="m32-8-4-2v-4l4 2z" opacity=".29"/><path d="m32-8 4-2v-4l-4 2z" opacity=".11"/><path d="m29-14.4-.6-4.6 1.5 3.8s.3-4.9.3-4.9c0 .1.2 4.8.2 4.8l.5-5 .9 5.8.7-6.5.4 6.9.8-6.9-.2 6 2-5.2-2 6.3 2.2-4.8-1.7 4.4 2-3.7-1.5 4.3-2.5 1.2z" fill="#9c3"/><path d="m29.3-14.2 2.7 1.3 2.7-1.2 1.3-4.7-1.4 3.5.6-4.4-1.1 3.9-.3-4.6-.5 5.6-.9-5.7.1 5.8-1.5-5.3.3 5.6-1.3-5 .5 5.3-1.6-4.7.8 4.4-1.7-4.7z" fill="#539b00"/><path d="m30.9-14.4-1.3-3.1 1.4 2.7-.1-4.7.5 4.7.5-5.7v6l1.3-3.4-1 4.1z" fill="#539b00"/><path d="m28.6-14.2-.6-4.1.8 3.3-.2-5.5.5 5.9.5-5.5v5.9l1.3-3.4-1 4.2z" fill="#9c3"/><path d="m34.1-13.3 1.3-.6.6-3.1-1 2.7.8-6-1.1 6.2-.7-6.5.4 6.5-1.6-5z" fill="#9c3"/><g fill="#539b00"><path d="m31.1-12.7-.8-.6-1.2-5.3 1.3 5 .1-7.4.2 7.6 1.3-8.1-1 8.2 2.2-6.8z"/><path d="m32.9-12.6.8-.5 2-5.9-2.2 5.6 1.5-7.8-1.7 7.8-.1-8.2v8.5l-2-7.9 1.7 8.1-2.5-6.4z"/><path d="m28.9-13.9.4.3 1-3.8-1.1 3.2v-5.1l-.2 4.9-1-2.5z"/></g><path d="m32-12.2.5-.2 1.5-4.7-1.5 3.7.5-5-.8 4.8-.2-6.1v6.6l-1-5.4.7 5.4-1.1-3.8.8 4.3z" fill="#9c3"/></g><g transform="matrix(-1 0 0 1 48 56)"><path d="m24-20v4l4 2 4-2v-4l-4-2z" fill="#656565"/><path d="m28-14-4-2v-4l4 2z" opacity=".29"/><path d="m28-14 4-2v-4l-4 2z" opacity=".11"/><path d="m25-20.4-.6-4.6 1.5 3.8s.3-5 .3-4.9.2 4.8.2 4.8l.5-5 .9 5.8.7-6.5.3 6.9.8-6.9-.1 6 1.9-5.2-2 6.3 2.2-4.8-1.6 4.4 2-3.7-1.5 4.3-2.5 1.2z" fill="#9c3"/><path d="m25.3-20.1 2.7 1.2 2.7-1.2 1.3-4.7-1.4 3.4.5-4.3-1 3.8-.3-4.5-.5 5.6-.9-5.7.2 5.9-1.6-5.4.3 5.6-1.3-5 .5 5.3-1.6-4.7.8 4.4-1.7-4.7z" fill="#539b00"/><path d="m26.9-20.4-1.3-3.1 1.4 2.7-.1-4.7.5 4.6.5-5.6v6l1.2-3.4-1 4.1z" fill="#539b00"/><path d="m24.6-20.1-.6-4.2.8 3.3-.2-5.5.5 6 .5-5.6v5.9l1.3-3.4-1 4.2z" fill="#9c3"/><path d="m30.1-19.3 1.3-.6.6-3.1-.9 2.7.7-6-1.1 6.2-.6-6.5.3 6.6-1.5-5.1z" fill="#9c3"/><g fill="#539b00"><path d="m27.1-18.7-.8-.6-1.2-5.3 1.3 5.1.1-7.5.2 7.6 1.3-8.1-1 8.2 2.1-6.8z"/><path d="m28.9-18.6.8-.4 2-6-2.1 5.6 1.4-7.8-1.7 7.8-.2-8.2v8.5l-1.9-7.9 1.7 8.1-2.5-6.4z"/><path d="m24.9-19.9.4.3 1-3.8-1.1 3.2v-5.1l-.2 4.9-1-2.5z"/></g><path d="m28-18.2.5-.2 1.5-4.7-1.5 3.7.6-5-.9 4.8-.2-6.1v6.7l-1-5.5.7 5.4-1.1-3.8.8 4.4z" fill="#9c3"/></g><g transform="matrix(.2 0 0 .2 100 24)"><path d="m-229.9-35.4c-4.8-2.4-9.1-2.7-12.3-1.3l-1.2.6c-3.5 1.5-5.6 5.1-5.6 10.2 0 9.9 8 21.9 17.9 26.8 4.9 2.5 9.3 2.7 12.6 1.2 0 0 1.2-.6 2-1 2.9-1.8 4.6-5 4.6-9.7-.1-9.9-8.1-21.9-18-26.8z" fill="#825012"/><path d="m-215.6-9.1c0 8.5-7 12-15.5 7.8-8.6-4.3-15.5-14.7-15.5-23.3s6.9-12 15.5-7.8c8.5 4.4 15.5 14.7 15.5 23.3z" fill="#39c"/><path d="m-213.3-7.9c0 9.9-8 13.9-17.9 9s-17.9-17-17.9-26.8 8-13.9 17.9-9c10 4.9 17.9 16.9 17.9 26.8z" opacity=".11"/><g fill="#fff"><path d="m-228.5-7-13.9-26.1c-1.1.6-2 1.5-2.8 2.6z" opacity=".15"/><path d="m-232.6-2.2c.5.3 1 .5 1.5.8 1 .5 2 .9 3 1.2l-12.9-19.3z" opacity=".15"/></g></g><path d="m20 38v4l24-12v-12l-16 8v4l-4 2v4z" fill="#656565"/><path d="m20 38v4l24-12v-12l-16 8v4l-4 2v4z" opacity=".29"/><g transform="matrix(-.1 0 0 .1 96 68)"><path d="m480-240 40 20 80-40-40-20z" opacity=".2"/><path d="m592-299.5v39.5l4 2 4-2v-39.5l-4-2z" fill="#825012"/><path d="m596-258-4-2v-39.5l4 2z" opacity=".29"/><path d="m596-258 4-2v-39.5l-4 2z" opacity=".11"/><path d="m516-262.5v40.5l4 2 4-2v-40.5l-4-2z" fill="#825012"/><path d="m520-220-4-2v-40.5l4 2z" opacity=".29"/><path d="m520-220 4-2v-40.5l-4 2z" opacity=".11"/><path d="m480-279.5v39.5l4 2 4-2v-39.5l-4-2z" fill="#825012"/><path d="m484-238-4-2v-39.5l4 2z" opacity=".29"/><path d="m484-238 4-2v-39.5l-4 2z" opacity=".11"/><path d="m480-280v5l40 20 80-40v-5l-40-20z" fill="#825012"/><path d="m520-255-40-20v-5l40 20z" opacity=".29"/><path d="m520-255 80-40v-5l-80 40z" opacity=".11"/></g><g transform="matrix(-.2 0 0 .2 132 40)"><path d="m385 15 80-40-30-15-80 40z" opacity=".2"/><path d="m384 14.5 1 .5 1-.5 1-8.5-2-1-2 1z" fill="#825012"/><path d="m384 14.5 1 .5v-8l-2-1z" opacity=".29"/><path d="m385 15 1-.5 1-8.5-2 1z" opacity=".11"/><path d="m463-25 1 .5 1-.5v-8l-2-1-2 1z" fill="#825012"/><path d="m463-25 1 .5-1-7.5-2-1z" opacity=".29"/><path d="m464-24.5 1-.5v-8l-2 1z" opacity=".11"/><path d="m355 0 1 .5 1-.5 2-8-2-1-2 1z" fill="#825012"/><path d="m355 0 1 .5 1-7.5-2-1z" opacity=".29"/><path d="m356 .5 1-.5 2-8-2 1z" opacity=".11"/><path d="m355-10v3l30 15 80-40v-3l-30-15z" fill="#825012"/><path d="m385 8-30-15v-3l30 15z" opacity=".29"/><path d="m385 8 80-40v-3l-80 40z" opacity=".11"/><path d="m355-21v12l30 15 80-40v-12l-30-15z" fill="#e5e5e5"/><path d="m385 6-30-15v-12l30 15z" opacity=".29"/><path d="m385 6 80-40v-12l-80 40z" opacity=".11"/><path d="m430-66v7.5l30 15 5-2.5v-7.5l-30-15z" fill="#e5e5e5"/><path d="m460-43.5-30-15v-7.5l30 15z" opacity=".29"/><path d="m460-43.5 5-2.5v-7.5l-5 2.5z" opacity=".11"/><path d="m396-64v22.5l6 3 34-17v-22.5l-6-3z" fill="#e5e5e5"/><path d="m402-38.5-6-3v-22.5l6 3z" opacity=".29"/><path d="m402-38.5 34-17v-22.5l-34 17z" opacity=".11"/><path d="m360-46v22.5l6 3 34-17v-22.5l-6-3z" fill="#e5e5e5"/><path d="m366-20.5-6-3v-22.5l6 3z" opacity=".29"/><path d="m366-20.5 34-17v-22.5l-34 17z" opacity=".11"/><path d="m355-28.5v7.5l30 15 5-2.5v-7.5l-30-15z" fill="#e5e5e5"/><path d="m385-6-30-15v-7.5l30 15z" opacity=".29"/><path d="m385-6 5-2.5v-7.5l-5 2.5z" opacity=".11"/><path d="m430.5-62.5c1.1-1.5 11.9-.3 17-1.5 2.8 2.1 3.4 14.4 2 16.5-2.6-.8-15.6-.2-19.5.5.6-4.8 1.1-11.3.5-15.5z" fill="#939"/><path d="m447.8-63.8c2.5 2.5 1.6 12.8.3 14.8-2.6-.8-14.1 1.3-18 2 3.9-.7 16.9-1.3 19.5-.5 1.3-2 .7-13.7-1.8-16.3z" opacity=".15"/></g><g transform="matrix(-.2 0 0 .2 92 60)"><path d="m285-35 40-20-30-15-40 20z" opacity=".2"/><path d="m284-35.5 1 .5 1-.5 1-8.5-2-1-2 1z" fill="#825012"/><path d="m284-35.5 1 .5v-8l-2-1z" opacity=".29"/><path d="m285-35 1-.5 1-8.5-2 1z" opacity=".11"/><path d="m323-55 1 .5 1-.5v-8l-2-1-2 1z" fill="#825012"/><path d="m323-55 1 .5-1-7.5-2-1z" opacity=".29"/><path d="m324-54.5 1-.5v-8l-2 1z" opacity=".11"/><path d="m255-50 1 .5 1-.5 2-8-2-1-2 1z" fill="#825012"/><path d="m255-50 1 .5 1-7.5-2-1z" opacity=".29"/><path d="m256-49.5 1-.5 2-8-2 1z" opacity=".11"/><path d="m255-60v3l30 15 40-20v-3l-30-15z" fill="#825012"/><path d="m285-42-30-15v-3l30 15z" opacity=".29"/><path d="m285-42 40-20v-3l-40 20z" opacity=".11"/><path d="m255-71v12l30 15 40-20v-12l-30-15z" fill="#e5e5e5"/><path d="m285-44-30-15v-12l30 15z" opacity=".29"/><path d="m285-44 40-20v-12l-40 20z" opacity=".11"/><path d="m290-96v7.5l30 15 5-2.5v-7.5l-30-15z" fill="#e5e5e5"/><path d="m320-73.5-30-15v-7.5l30 15z" opacity=".29"/><path d="m320-73.5 5-2.5v-7.5l-5 2.5z" opacity=".11"/><path d="m270-76c1.1-1.6 11.9-.3 17-1.5 2.8 2.1 3.4 14.4 2 16.5-2.6-.8-13.3.3-18-3-1.4-4.8-.4-7.8-1-12z" fill="#939"/><path d="m284-84v22.5l6 3 30-15v-22.5l-6-3z" fill="#e5e5e5"/><path d="m290-58.5-6-3v-22.5l6 3z" opacity=".29"/><path d="m290-58.5 30-15v-22.5l-30 15z" opacity=".11"/><path d="m255-78.5v7.5l30 15 5-2.5v-7.5l-30-15z" fill="#e5e5e5"/><path d="m285-56-30-15v-7.5l30 15z" opacity=".29"/><path d="m285-56 5-2.5v-7.5l-5 2.5z" opacity=".11"/></g></svg>