<svg enable-background="new 0 0 64 56" height="56" viewBox="0 0 64 56" width="64" xmlns="http://www.w3.org/2000/svg"><g transform="matrix(.5 0 0 .5 432 568)"><path d="m-800-1088-64 32 64 32 64-32z" fill="#762c07"/><path d="m-800-1088-64 32 64 32 64-32z" fill="#762c07"/><path d="m-739.6-1057.8-.4-.2-4 2-3.6-1.8 4-2-.4-.2-12 6-3.6-1.8 12-6-.4-.2-4 2-3.6-1.8 4-2-.4-.2-12 6-3.6-1.8 12-6-.4-.2-4 2-3.6-1.8 4-2-.4-.2-12 6-3.6-1.8 12-6-.4-.2-4 2-3.6-1.8 4-2-.4-.2-12 6-3.6-1.8 12-6-.4-.2-4 2-3.6-1.8 4-2-.4-.2-12 6-3.6-1.8 12-6-.4-.2-4 2-3.6-1.8 4-2-.4-.2-12 6-3.6-1.8 12-6-.4-.2-4 2-3.6-1.8 4-2-.4-.2-12 6-3.6-1.8 12-6-.4-.2-4 2-3.6-1.8 4-2-.4-.2-64 32 .4.2 11.6-5.8 3.6 1.8-11.6 5.8.4.2 3.6-1.8 3.6 1.8-3.6 1.8.4.2 11.6-5.8 3.6 1.8-11.6 5.8.4.2 3.6-1.8 3.6 1.8-3.6 1.8.4.2 11.6-5.8 3.6 1.8-11.6 5.8.4.2 3.6-1.8 3.6 1.8-3.6 1.8.4.2 11.6-5.8 3.6 1.8-11.6 5.8.4.2 3.6-1.8 3.6 1.8-3.6 1.8.4.2 11.6-5.8 3.6 1.8-11.6 5.8.4.2 3.6-1.8 3.6 1.8-3.6 1.8.4.2 11.6-5.8 3.6 1.8-11.6 5.8.4.2 3.6-1.8 3.6 1.8-3.6 1.8.4.2 11.6-5.8 3.6 1.8-11.6 5.8.4.2 3.6-1.8 3.6 1.8-3.6 1.8.4.2 11.6-5.8 3.6 1.8-11.6 5.8.4.2 3.6-1.8 3.6 1.8.4-.2-3.6-1.8 15.6-7.8 3.6 1.8.4-.2-3.6-1.8 15.6-7.8 3.6 1.8.4-.2-3.6-1.8 15.6-7.8 3.6 1.8.4-.2-3.6-1.8zm-16.8 4-15.6 7.8-3.6-1.8 15.6-7.8zm-31.6 15.8-3.6-1.8 15.6-7.8 3.6 1.8zm-8-4-3.6-1.8 15.6-7.8 3.6 1.8zm-8-4-3.6-1.8 15.6-7.8 3.6 1.8zm-8-4-3.6-1.8 15.6-7.8 3.6 1.8zm-8-4-3.6-1.8 15.6-7.8 3.6 1.8zm-8-4-3.6-1.8 15.6-7.8 3.6 1.8zm-8-4-3.6-1.8 15.6-7.8 3.6 1.8zm24-11.6 3.6 1.8-15.6 7.8-3.6-1.8zm8 4 3.6 1.8-15.6 7.8-3.6-1.8zm8 4 3.6 1.8-15.6 7.8-3.6-1.8zm8 4 3.6 1.8-15.6 7.8-3.6-1.8zm8 4 3.6 1.8-15.6 7.8-3.6-1.8zm8 4 3.6 1.8-15.6 7.8-3.6-1.8zm16-8 3.6 1.8-15.6 7.8-3.6-1.8zm-8.4 3.8-15.6 7.8-3.6-1.8 15.6-7.8zm.4-7.8 3.6 1.8-15.6 7.8-3.6-1.8zm-8.4 3.8-15.6 7.8-3.6-1.8 15.6-7.8zm.4-7.8 3.6 1.8-15.6 7.8-3.6-1.8zm-8.4 3.8-15.6 7.8-3.6-1.8 15.6-7.8zm.4-7.8 3.6 1.8-15.6 7.8-3.6-1.8zm-8.4 3.8-15.6 7.8-3.6-1.8 15.6-7.8zm.4-7.8 3.6 1.8-15.6 7.8-3.6-1.8zm-8.4 3.8-15.6 7.8-3.6-1.8 15.6-7.8zm.4-7.8 3.6 1.8-15.6 7.8-3.6-1.8zm-8.4 3.8-15.6 7.8-3.6-1.8 15.6-7.8zm.4-7.8 3.6 1.8-15.6 7.8-3.6-1.8zm-16 8 3.6 1.8-15.6 7.8-3.6-1.8zm-31.6 15.8 15.6-7.8 3.6 1.8-15.6 7.8zm-.4 7.8-3.6-1.8 15.6-7.8 3.6 1.8zm8.4-3.8 15.6-7.8 3.6 1.8-15.6 7.8zm-.4 7.8-3.6-1.8 15.6-7.8 3.6 1.8zm8.4-3.8 15.6-7.8 3.6 1.8-15.6 7.8zm-.4 7.8-3.6-1.8 15.6-7.8 3.6 1.8zm8.4-3.8 15.6-7.8 3.6 1.8-15.6 7.8zm-.4 7.8-3.6-1.8 15.6-7.8 3.6 1.8zm8.4-3.8 15.6-7.8 3.6 1.8-15.6 7.8zm-.4 7.8-3.6-1.8 15.6-7.8 3.6 1.8zm8.4-3.8 15.6-7.8 3.6 1.8-15.6 7.8zm-.4 7.8-3.6-1.8 15.6-7.8 3.6 1.8zm8.4-3.8 15.6-7.8 3.6 1.8-15.6 7.8zm-.4 7.8-3.6-1.8 15.6-7.8 3.6 1.8zm12-2-3.6-1.8 15.6-7.8 3.6 1.8zm16-8-3.6-1.8 15.6-7.8 3.6 1.8zm16-8-3.6-1.8 15.6-7.8 3.6 1.8z" opacity=".2"/></g><g transform="matrix(-1 0 0 1 496 544)"><path d="m464-520-32 16v-24l32-16z" fill="#762c07"/><path d="m464-520-32 16v-24l32-16z" fill="#762c07"/><path d="m460-519 3-1.5v-2l-3 1.5zm-4 2 3-1.5v-2l-3 1.5zm-4 2 3-1.5v-2l-3 1.5zm-4 2 3-1.5v-2l-3 1.5zm-4 2 3-1.5v-2l-3 1.5zm-4 2 3-1.5v-2l-3 1.5zm-4 2 3-1.5v-2l-3 1.5zm-4 2 3-1.5v-2l-3 1.5zm30-18 2-1v-2l-2 1zm-1-1.5-3 1.5v2l3-1.5zm-4 2-3 1.5v2l3-1.5zm-4 2-3 1.5v2l3-1.5zm-4 2-3 1.5v2l3-1.5zm-4 2-3 1.5v2l3-1.5zm-4 2-3 1.5v2l3-1.5zm-7 5.5 3-1.5v-2l-3 1.5zm-1-1.5-1 .5v2l1-.5zm30-18-3 1.5v2l3-1.5zm-4 2-3 1.5v2l3-1.5zm-4 2-3 1.5v2l3-1.5zm-4 2-3 1.5v2l3-1.5zm-4 2-3 1.5v2l3-1.5zm-4 2-3 1.5v2l3-1.5zm-4 2-3 1.5v2l3-1.5zm-4 2-3 1.5v2l3-1.5zm27-14.5 2-1v-2l-2 1zm-4 2 3-1.5v-2l-3 1.5zm-1-1.5-3 1.5v2l3-1.5zm-4 2-3 1.5v2l3-1.5zm-4 2-3 1.5v2l3-1.5zm-4 2-3 1.5v2l3-1.5zm-7 5.5 3-1.5v-2l-3 1.5zm-4 2 3-1.5v-2l-3 1.5zm-1-1.5-1 .5v2l1-.5zm30-18-3 1.5v2l3-1.5zm-4 2-3 1.5v2l3-1.5zm-4 2-3 1.5v2l3-1.5zm-4 2-3 1.5v2l3-1.5zm-4 2-3 1.5v2l3-1.5zm-4 2-3 1.5v2l3-1.5zm-4 2-3 1.5v2l3-1.5zm-4 2-3 1.5v2l3-1.5zm27-14.5 2-1v-2l-2 1zm-4 2 3-1.5v-2l-3 1.5zm-4 2 3-1.5v-2l-3 1.5zm-4 2 3-1.5v-2l-3 1.5zm-4 2 3-1.5v-2l-3 1.5zm-4 2 3-1.5v-2l-3 1.5zm-4 2 3-1.5v-2l-3 1.5zm-4 2 3-1.5v-2l-3 1.5zm-1-1.5-1 .5v2l1-.5zm30-18-3 1.5v2l3-1.5zm-4 2-3 1.5v2l3-1.5zm-7 5.5 3-1.5v-2l-3 1.5zm-4 2 3-1.5v-2l-3 1.5zm-4 2 3-1.5v-2l-3 1.5zm-4 2 3-1.5v-2l-3 1.5zm-4 2 3-1.5v-2l-3 1.5zm-1-1.5-3 1.5v2l3-1.5zm27-16.5v2l2-1v-2zm-1 .5-3 1.5v2l3-1.5zm-4 2-3 1.5v2l3-1.5zm-4 2-3 1.5v2l3-1.5zm-4 2-3 1.5v2l3-1.5zm-4 2-3 1.5v2l3-1.5zm-4 2-3 1.5v2l3-1.5zm-4 2-3 1.5v2l3-1.5zm-4 2-1 .5v2l1-.5z" fill="#baa794" opacity=".5"/><path d="m432-504 32-16v-24l-32 16z" opacity=".11"/></g><g transform="translate(432 544)"><path d="m-400-520-32 16v-24l32-16z" fill="#e5e5e5"/><path d="m-417-511.5-14 7v-21l14-7z" fill="#39c"/><path d="m-417-528.5-14 7v-4l14-7z" fill="#262626" opacity=".15"/><path d="m-417-530.5-14 7v-2l14-7z" fill="#262626" opacity=".15"/><path d="m-417-531.5-14 7v-1l14-7z" fill="#262626" opacity=".15"/><path d="m-417-525.5-14 7v-1l14-7z" fill="#262626" opacity=".15"/><path d="m-417-527.5-4 2v-5l-1 .5v5l-4 2v-5l-1 .5v5l-4 2v1l4-2v15l1-.5v-15l4-2v15l1-.5v-15l4-2z" fill="#fff" opacity=".7"/><path d="m-401-519.5-14 7v-21l14-7z" fill="#39c"/><path d="m-401-536.5-14 7v-4l14-7z" fill="#262626" opacity=".15"/><path d="m-401-538.5-14 7v-2l14-7z" fill="#262626" opacity=".15"/><path d="m-401-539.5-14 7v-1l14-7z" fill="#262626" opacity=".15"/><path d="m-401-533.5-14 7v-1l14-7z" fill="#262626" opacity=".15"/><g fill="#fff"><path d="m-401-535.5-4 2v-5l-1 .5v5l-4 2v-5l-1 .5v5l-4 2v1l4-2v15l1-.5v-15l4-2v15l1-.5v-15l4-2z" opacity=".7"/><path d="m-406-517-4 2v-21l4-2z" opacity=".3"/><path d="m-401-519.5-4 2v-21l4-2z" opacity=".2"/><path d="m-422-509-4 2v-21l4-2z" opacity=".2"/><path d="m-411-514.5-4 2v-21l4-2z" opacity=".1"/></g><path d="m-400-520-32 16v-24l32-16z" opacity=".29"/></g><g transform="matrix(-.1 0 0 .1 488 560)"><path d="m4360-5256v6l80 40 160-80v-6l-80-40z" fill="#825012"/><path d="m4440-5210-80-40v-6l80 40z" opacity=".29"/><path d="m4440-5210 160-80v-6l-160 80z" opacity=".11"/><path d="m4360-5290v36l80 40 160-80v-36l-80-40z" fill="#28896d"/><path d="m4440-5214-80-40v-36l80 40z" opacity=".29"/><path d="m4440-5214 160-80v-36l-160 80z" opacity=".11"/><path d="m4440-5380v50l20 10 80-40v-50l-20-10z" fill="#9c3"/><path d="m4460-5320-20-10v-50l20 10z" opacity=".29"/><path d="m4460-5320 80-40v-50l-80 40z" opacity=".11"/><path d="m4360-5340v50l20 10 80-40v-50l-20-10z" fill="#9c3"/><path d="m4380-5280-20-10v-50l20 10z" opacity=".29"/><path d="m4380-5280 80-40v-50l-80 40z" opacity=".11"/></g><g transform="matrix(.1 0 0 .1 464 568)"><g><path d="m-4280-5256v6l80 40 160-80v-6l-80-40z" fill="#825012"/><path d="m-4200-5210-80-40v-6l80 40z" opacity=".11"/><path d="m-4200-5210 160-80v-6l-160 80z" opacity=".29"/></g><g><path d="m-4280-5290v36l80 40 160-80v-36l-80-40z" fill="#28896d"/><path d="m-4200-5214-80-40v-36l80 40z" opacity=".11"/><path d="m-4200-5214 160-80v-36l-160 80z" opacity=".29"/></g><g><path d="m-4140-5350v50l20 10 80-40v-50l-20-10z" fill="#9c3"/><path d="m-4120-5290-20-10v-50l20 10z" opacity=".11"/><path d="m-4120-5290 80-40v-50l-80 40z" opacity=".29"/></g><g><path d="m-4220-5310v50l20 10 80-40v-50l-20-10z" fill="#9c3"/><path d="m-4200-5250-20-10v-50l20 10z" opacity=".11"/><path d="m-4200-5250 80-40v-50l-80 40z" opacity=".29"/></g></g><g transform="matrix(.066666665 0 0 .066666665 448 572)"><path d="m-6480-7960 80 40 160-80-80-40z" opacity=".2"/><path d="m-6330-8115v80l80 40 10-5v-80l-80-40z" fill="#e5e5e5"/><path d="m-6250-7995-80-40v-80l80 40z" opacity=".11"/><path d="m-6250-8075v80l10-5v-80z" opacity=".29"/><path d="m-6470-8045 140-70 80 40v4l-140 70-80-40z" fill="#39c" opacity=".3"/><path d="m-6390-8005 140-70v4l-140 70z" opacity=".29"/><path d="m-6480-8040v80l80 40 10-5v-80l-80-40z" fill="#e5e5e5"/><path d="m-6400-7920-80-40v-80l80 40z" opacity=".11"/><path d="m-6400-8000v80l10-5v-80z" opacity=".29"/></g><g transform="matrix(.5 0 0 .5 450 566)"><path d="m-854.7-1066.3.8-.1s1.6-7 1.7-9.7-.7-5.7-.7-5.7-.4 5.3-.8 7.9-1 7.6-1 7.6z" fill="#539b00"/><path d="m-854.7-1066.3.8-.1s1.6-7 1.7-9.7-.7-5.7-.7-5.7-.4 5.3-.8 7.9-1 7.6-1 7.6z" fill="#fff" opacity=".3"/><path d="m-856-1068c-1.7 0-3 .7-3 1.5v6c0 .8 1.3 1.5 3 1.5s3-.7 3-1.5v-6c0-.8-1.3-1.5-3-1.5z" fill="#e5e5e5"/><path d="m-856-1065c-1.7 0-3-.7-3-1.5v6c0 .8 1.3 1.5 3 1.5s3-.7 3-1.5v-6c0 .8-1.3 1.5-3 1.5z" opacity=".2"/><ellipse cx="-856" cy="-1066.5" fill="#825012" rx="2.3" ry=".9"/><path d="m-855-1066 .7-.5s.7-4.1.5-6.2-.4-3-.4-3-.7 2.7-.8 4.7 0 5 0 5z" fill="#539b00"/><path d="m-855-1066 .7-.5s.7-4.1.5-6.2-.4-3-.4-3-.7 2.7-.8 4.7 0 5 0 5z" fill="#fff" opacity=".3"/><g fill="#539b00"><path d="m-855-1066 .7-.5s.7-4.1.5-6.2-.4-2.5-.4-2.5-.5 2.2-.6 4.2-.2 5-.2 5z"/><path d="m-855-1066.5.7.3s1.2-2.1 1.4-3.8.4-4.9.4-4.9-1.2 1.7-1.6 4.2-.9 4.2-.9 4.2z"/><path d="m-854.7-1066.3.8-.1s1.1-5.8 1.4-8.5c.4-3.4-.2-5.1-.2-5.1s-.4 3.6-.8 6.2-1.2 7.5-1.2 7.5z"/><path d="m-855.8-1066.4.6.3.6-.4s-.4-4.4-.3-6.2.5-5.7.5-5.7-1.2 3-1.7 4.6.3 7.4.3 7.4z"/><path d="m-857.4-1066.4.3.1.5-.6s.1-1.4-.3-3.2c-.5-1.9-2.4-5.5-2.4-5.5s.9 4.4 1.1 5.7c.3 1.4.8 3.5.8 3.5z"/><path d="m-857.8-1066 .2.1.3-.2s-.1-1.9-.4-3.1c-.3-1.3-1-3.1-1-3.1s.1 1.2.1 2.5.8 3.8.8 3.8z"/><path d="m-857.6-1066.2.9-.2s-.2-3.2-1.5-5.4-2.4-3.7-2.4-3.7-.1 2.3 1.5 5.2 1.5 4.1 1.5 4.1z"/></g><path d="m-857.6-1066.2.9-.2s-.2-3.2-1.5-5.4-2.4-3.7-2.4-3.7-.1 2.3 1.5 5.2 1.5 4.1 1.5 4.1z" fill="#fff" opacity=".3"/><path d="m-857.6-1066.2.9-.2s-.3-3-1.5-5.1-2.2-3.3-2.2-3.3-.2 1.5 1.4 4.4 1.4 4.2 1.4 4.2z" fill="#539b00"/><path d="m-857.2-1066.5 1-.2s-.4-3.9-1.3-6.4-2.9-5.1-2.9-5.1 1 3.8 1.5 5.3 1.7 6.4 1.7 6.4z" fill="#539b00"/><path d="m-857.2-1066.5 1-.2s-.4-3.9-1.3-6.4-2.9-5.1-2.9-5.1 1 3.8 1.5 5.3 1.7 6.4 1.7 6.4z" fill="#fff" opacity=".3"/><path d="m-857.1-1066.2 1-.2s-.5-4.2-1.4-6.7-2.3-3.9-2.3-3.9.6 2.6 1.1 4.2 1.6 6.6 1.6 6.6z" fill="#539b00"/><path d="m-856.8-1066.9h.8s.7-7.7.9-10.1.5-5.8.5-5.8-1.9 6.8-2.1 9.1c-.2 2.4-.1 6.8-.1 6.8z" fill="#539b00"/><path d="m-856.8-1066.9h.8s.7-7.7.9-10.1.5-5.8.5-5.8-1.9 6.8-2.1 9.1c-.2 2.4-.1 6.8-.1 6.8z" fill="#fff" opacity=".3"/><path d="m-856.8-1066.7.8-.2s.6-7.6.8-10 .4-4.3.4-4.3-1.4 5.4-1.6 7.7c-.3 2.4-.4 6.8-.4 6.8z" fill="#539b00"/><path d="m-856.3-1066.2 1.1-.4s-.6-6.2-1.1-7.6c-.5-1.5-2.9-6.4-2.9-6.4s1.5 6.6 1.7 8.1 1.2 6.3 1.2 6.3z" fill="#539b00"/><path d="m-856.3-1066.2 1.1-.4s-.6-6.2-1.1-7.6c-.5-1.5-2.9-6.4-2.9-6.4s1.5 6.6 1.7 8.1 1.2 6.3 1.2 6.3z" fill="#fff" opacity=".3"/><path d="m-856.4-1066.2 1.3-.3s-.9-6.4-1.4-7.8c-.5-1.5-2-4.8-2-4.8s1 5 1.2 6.5c.1 1.6.9 6.4.9 6.4z" fill="#539b00"/></g><g transform="matrix(.1375 0 0 .1375 472 545)"><path d="m-3061.8-3796.4-80-40v-80l80 40z" fill="#e5e5e5"/><path d="m-3067.8-3807.4-68-34v-64l68 34z" fill="#fc0"/><path d="m-3081.8-3819.4-44-81-10-5v8z" fill="#fff" opacity=".15"/><path d="m-3089.8-3818.4-10-5-18-37z" fill="#fff" opacity=".15"/><path d="m-3061.8-3796.4-80-40v-80l80 40z" opacity=".11"/></g><path d="m-1700.2-2147.6c-2.1 2.4-4.5 1.7-8.9 1.9-5.6.2-4.6 5.5-3.6 8.6-1.2-1.8-2.4-3.7-3-5.5-.9-3.2 1.1-4.3 2.5-5.6 1.1-1.1 2-2.2 2.3-4 .4 0 2.8 0 2.7-2.5-.1-2.9-2.7-7.4-5.3-9.9.4 2.2-.4 2.9-1.3 4.8-1.2 2.7 1.2 5.5 2.5 6.6-.5 2.3-2.1 3.5-3.6 4.8.7-1.7 1.2-5.1-3.1-9.4-3.4-3.6-5.3-4.9-7-8.4-1.5 3.3-1.2 9.7 1.8 14.4 2.3 3.7 5.8 4.7 6.8 4.9-.6.7-1 1.6-.8 3 .6 3.7 4.4 7.1 5.5 10.8.2.6.6 1.1 1.1 1.4.9.4 1.4-.2 1.1-1.1 0-.1-.1-.2-.1-.4 1.3 1 5.8 4.1 8.6 2.2 3.6-2.5 3.9-10.4 1.8-16.6zm-12-14.1s1.2 2.4 1.3 5.9c.1 2.2 0 3.1-.1 3.3-.4-.2-.9-.5-1.2-.8 0-.1 0-.1.1-.2 1.1-3.8-.1-8.2-.1-8.2zm-5.1 14.6c-.5-.6-2.2-2.6-4.4-6.8-3-5.8-3.2-7.8-3.2-7.8s2.5 6.7 8.4 13.5l.1.1c-.1.1-.2.2-.3.3-.2.3-.4.5-.6.7zm10.8 11.5c-1.3 1-3.6 1.7-4.3 2-.4-.9-.8-1.7-1.4-2.6h.1c7.4-1.4 10.5-6.9 10.5-6.9s-.8 4.3-4.9 7.5z" fill="#28896d" transform="matrix(.25 0 0 .25 474 552)"/><g transform="matrix(.1 0 0 .1 452 582)"><path d="m-4280-5336v6l80 40 80-40v-6l-80-40z" fill="#825012"/><path d="m-4200-5290-80-40v-6l80 40z" opacity=".11"/><path d="m-4200-5290 80-40v-6l-80 40z" opacity=".29"/><path d="m-4280-5370v36l80 40 80-40v-36l-80-40z" fill="#28896d"/><path d="m-4200-5294-80-40v-36l80 40z" opacity=".11"/><path d="m-4200-5294 80-40v-36l-80 40z" opacity=".29"/><path d="m-4140-5430-60 30-60-30-20 10v50l80 40 80-40v-50z" fill="#9c3"/><path d="m-4200-5330-80-40v-50l80 40z" opacity=".11"/><path d="m-4200-5330 80-40v-50l-80 40z" opacity=".29"/></g></svg>