<svg enable-background="new 0 0 64 56" height="56" viewBox="0 0 64 56" width="64" xmlns="http://www.w3.org/2000/svg"><g transform="matrix(-1 0 0 1 768 544)"><path d="m736-520 32 16v-24l-32-16z" fill="#762c07"/><path d="m736-520 32 16v-24l-32-16z" fill="#762c07"/><path d="m740-521-3-1.5v2l3 1.5zm4 2-3-1.5v2l3 1.5zm4 2-3-1.5v2l3 1.5zm4 2-3-1.5v2l3 1.5zm4 2-3-1.5v2l3 1.5zm4 2-3-1.5v2l3 1.5zm4 2-3-1.5v2l3 1.5zm4 2-3-1.5v2l3 1.5zm-30-18-2-1v2l2 1zm1 2.5 3 1.5v-2l-3-1.5zm4 2 3 1.5v-2l-3-1.5zm4 2 3 1.5v-2l-3-1.5zm4 2 3 1.5v-2l-3-1.5zm4 2 3 1.5v-2l-3-1.5zm4 2 3 1.5v-2l-3-1.5zm7 1.5-3-1.5v2l3 1.5zm1 2.5 1 .5v-2l-1-.5zm-30-18 3 1.5v-2l-3-1.5zm4 2 3 1.5v-2l-3-1.5zm4 2 3 1.5v-2l-3-1.5zm4 2 3 1.5v-2l-3-1.5zm4 2 3 1.5v-2l-3-1.5zm4 2 3 1.5v-2l-3-1.5zm4 2 3 1.5v-2l-3-1.5zm4 2 3 1.5v-2l-3-1.5zm-27-18.5-2-1v2l2 1zm4 2-3-1.5v2l3 1.5zm1 2.5 3 1.5v-2l-3-1.5zm4 2 3 1.5v-2l-3-1.5zm4 2 3 1.5v-2l-3-1.5zm4 2 3 1.5v-2l-3-1.5zm7 1.5-3-1.5v2l3 1.5zm4 2-3-1.5v2l3 1.5zm1 2.5 1 .5v-2l-1-.5zm-30-18 3 1.5v-2l-3-1.5zm4 2 3 1.5v-2l-3-1.5zm4 2 3 1.5v-2l-3-1.5zm4 2 3 1.5v-2l-3-1.5zm4 2 3 1.5v-2l-3-1.5zm4 2 3 1.5v-2l-3-1.5zm4 2 3 1.5v-2l-3-1.5zm4 2 3 1.5v-2l-3-1.5zm-27-18.5-2-1v2l2 1zm4 2-3-1.5v2l3 1.5zm4 2-3-1.5v2l3 1.5zm4 2-3-1.5v2l3 1.5zm4 2-3-1.5v2l3 1.5zm4 2-3-1.5v2l3 1.5zm4 2-3-1.5v2l3 1.5zm4 2-3-1.5v2l3 1.5zm1 2.5 1 .5v-2l-1-.5zm-30-18 3 1.5v-2l-3-1.5zm4 2 3 1.5v-2l-3-1.5zm7 1.5-3-1.5v2l3 1.5zm4 2-3-1.5v2l3 1.5zm4 2-3-1.5v2l3 1.5zm4 2-3-1.5v2l3 1.5zm4 2-3-1.5v2l3 1.5zm1 2.5 3 1.5v-2l-3-1.5zm-29-19.5v2l2 1v-2zm3 3.5 3 1.5v-2l-3-1.5zm4 2 3 1.5v-2l-3-1.5zm4 2 3 1.5v-2l-3-1.5zm4 2 3 1.5v-2l-3-1.5zm4 2 3 1.5v-2l-3-1.5zm4 2 3 1.5v-2l-3-1.5zm4 2 3 1.5v-2l-3-1.5zm4 2 1 .5v-2l-1-.5z" fill="#baa794" opacity=".5"/><path d="m768-504-32-16v-24l32 16z" opacity=".29"/></g><g transform="matrix(.5 0 0 .5 736 568)"><path d="m-1408-1088-64 32 64 32 64-32z" fill="#762c07"/><path d="m-1408-1088-64 32 64 32 64-32z" fill="#762c07"/><path d="m-1347.6-1057.8-.4-.2-4 2-3.6-1.8 4-2-.4-.2-12 6-3.6-1.8 12-6-.4-.2-4 2-3.6-1.8 4-2-.4-.2-12 6-3.6-1.8 12-6-.4-.2-4 2-3.6-1.8 4-2-.4-.2-12 6-3.6-1.8 12-6-.4-.2-4 2-3.6-1.8 4-2-.4-.2-12 6-3.6-1.8 12-6-.4-.2-4 2-3.6-1.8 4-2-.4-.2-12 6-3.6-1.8 12-6-.4-.2-4 2-3.6-1.8 4-2-.4-.2-12 6-3.6-1.8 12-6-.4-.2-4 2-3.6-1.8 4-2-.4-.2-12 6-3.6-1.8 12-6-.4-.2-4 2-3.6-1.8 4-2-.4-.2-64 32 .4.2 11.6-5.8 3.6 1.8-11.6 5.8.4.2 3.6-1.8 3.6 1.8-3.6 1.8.4.2 11.6-5.8 3.6 1.8-11.6 5.8.4.2 3.6-1.8 3.6 1.8-3.6 1.8.4.2 11.6-5.8 3.6 1.8-11.6 5.8.4.2 3.6-1.8 3.6 1.8-3.6 1.8.4.2 11.6-5.8 3.6 1.8-11.6 5.8.4.2 3.6-1.8 3.6 1.8-3.6 1.8.4.2 11.6-5.8 3.6 1.8-11.6 5.8.4.2 3.6-1.8 3.6 1.8-3.6 1.8.4.2 11.6-5.8 3.6 1.8-11.6 5.8.4.2 3.6-1.8 3.6 1.8-3.6 1.8.4.2 11.6-5.8 3.6 1.8-11.6 5.8.4.2 3.6-1.8 3.6 1.8-3.6 1.8.4.2 11.6-5.8 3.6 1.8-11.6 5.8.4.2 3.6-1.8 3.6 1.8.4-.2-3.6-1.8 15.6-7.8 3.6 1.8.4-.2-3.6-1.8 15.6-7.8 3.6 1.8.4-.2-3.6-1.8 15.6-7.8 3.6 1.8.4-.2-3.6-1.8zm-16.8 4-15.6 7.8-3.6-1.8 15.6-7.8zm-31.6 15.8-3.6-1.8 15.6-7.8 3.6 1.8zm-8-4-3.6-1.8 15.6-7.8 3.6 1.8zm-8-4-3.6-1.8 15.6-7.8 3.6 1.8zm-8-4-3.6-1.8 15.6-7.8 3.6 1.8zm-8-4-3.6-1.8 15.6-7.8 3.6 1.8zm-8-4-3.6-1.8 15.6-7.8 3.6 1.8zm-8-4-3.6-1.8 15.6-7.8 3.6 1.8zm24-11.6 3.6 1.8-15.6 7.8-3.6-1.8zm8 4 3.6 1.8-15.6 7.8-3.6-1.8zm8 4 3.6 1.8-15.6 7.8-3.6-1.8zm8 4 3.6 1.8-15.6 7.8-3.6-1.8zm8 4 3.6 1.8-15.6 7.8-3.6-1.8zm8 4 3.6 1.8-15.6 7.8-3.6-1.8zm16-8 3.6 1.8-15.6 7.8-3.6-1.8zm-8.4 3.8-15.6 7.8-3.6-1.8 15.6-7.8zm.4-7.8 3.6 1.8-15.6 7.8-3.6-1.8zm-8.4 3.8-15.6 7.8-3.6-1.8 15.6-7.8zm.4-7.8 3.6 1.8-15.6 7.8-3.6-1.8zm-8.4 3.8-15.6 7.8-3.6-1.8 15.6-7.8zm.4-7.8 3.6 1.8-15.6 7.8-3.6-1.8zm-8.4 3.8-15.6 7.8-3.6-1.8 15.6-7.8zm.4-7.8 3.6 1.8-15.6 7.8-3.6-1.8zm-8.4 3.8-15.6 7.8-3.6-1.8 15.6-7.8zm.4-7.8 3.6 1.8-15.6 7.8-3.6-1.8zm-8.4 3.8-15.6 7.8-3.6-1.8 15.6-7.8zm.4-7.8 3.6 1.8-15.6 7.8-3.6-1.8zm-16 8 3.6 1.8-15.6 7.8-3.6-1.8zm-31.6 15.8 15.6-7.8 3.6 1.8-15.6 7.8zm-.4 7.8-3.6-1.8 15.6-7.8 3.6 1.8zm8.4-3.8 15.6-7.8 3.6 1.8-15.6 7.8zm-.4 7.8-3.6-1.8 15.6-7.8 3.6 1.8zm8.4-3.8 15.6-7.8 3.6 1.8-15.6 7.8zm-.4 7.8-3.6-1.8 15.6-7.8 3.6 1.8zm8.4-3.8 15.6-7.8 3.6 1.8-15.6 7.8zm-.4 7.8-3.6-1.8 15.6-7.8 3.6 1.8zm8.4-3.8 15.6-7.8 3.6 1.8-15.6 7.8zm-.4 7.8-3.6-1.8 15.6-7.8 3.6 1.8zm8.4-3.8 15.6-7.8 3.6 1.8-15.6 7.8zm-.4 7.8-3.6-1.8 15.6-7.8 3.6 1.8zm8.4-3.8 15.6-7.8 3.6 1.8-15.6 7.8zm-.4 7.8-3.6-1.8 15.6-7.8 3.6 1.8zm12-2-3.6-1.8 15.6-7.8 3.6 1.8zm16-8-3.6-1.8 15.6-7.8 3.6 1.8zm16-8-3.6-1.8 15.6-7.8 3.6 1.8z" opacity=".2"/></g><g transform="translate(768 544)"><path d="m-736-544 32 16v24l-32-16z" fill="#e5e5e5"/><path d="m-704-504-32-16v-1l32 16z" fill="#999"/><path d="m-704-504-32-16v-24l32 16z" opacity=".11"/></g><g transform="matrix(.1 0 0 .1 780 556)"><path d="m-7329.2-5433.3c-6.2-3.1-12.8-3.1-16.9-1.3l1-.4-2.6 1.2c-4.5 2.1-7.3 6.6-7.3 13.3 0 12.8 10.4 28.4 23.2 34.8 6.3 3.2 12.1 3.5 16.3 1.5 0 0 2.6-1.2 3.5-1.7 3.7-2.2 6-6.6 6-12.6 0-12.9-10.4-28.4-23.2-34.8z" fill="#cc291f"/><path d="m-7312.8-5399.4c0 10.5-8.5 14.7-19 9.5s-19-18-19-28.5 8.5-14.7 19-9.5 19 18 19 28.5z" fill="#fff"/><path d="m-7330.5-5390.4c-10.5-5.2-19-18-19-28.5 0-5.4 2.3-9.1 5.9-10.8-4.4 1.3-7.2 5.2-7.2 11.3 0 10.5 8.5 23.3 19 28.5 5.1 2.5 9.7 2.8 13.1 1.3-3.2.9-7.3.4-11.8-1.8z" opacity=".2"/><path d="m-7308.6-5397.3c0 12.8-10.4 18-23.2 11.6s-23.2-22-23.2-34.8 10.4-18 23.2-11.6 23.2 22 23.2 34.8z" opacity=".29"/><path d="m-7334-5426v18l18 9v-2l-16-8v-16z" fill="#2d3134"/></g><g transform="matrix(-.1 0 0 .1 794 560)"><path d="m7470-5210 160-80-60-30-160 80z" opacity=".2"/><path d="m7468-5211 2 1 2-1 2-17-4-2-4 2z" fill="#825012"/><path d="m7468-5211 2 1v-16l-4-2z" opacity=".29"/><path d="m7470-5210 2-1 2-17-4 2z" opacity=".11"/><path d="m7626-5290 2 1 2-1v-16l-4-2-4 2z" fill="#825012"/><path d="m7626-5290 2 1-2-15-4-2z" opacity=".29"/><path d="m7628-5289 2-1v-16l-4 2z" opacity=".11"/><path d="m7410-5240 2 1 2-1 4-16-4-2-4 2z" fill="#825012"/><path d="m7410-5240 2 1 2-15-4-2z" opacity=".29"/><path d="m7412-5239 2-1 4-16-4 2z" opacity=".11"/><path d="m7410-5260v6l60 30 160-80v-6l-60-30z" fill="#825012"/><path d="m7470-5224-60-30v-6l60 30z" opacity=".29"/><path d="m7470-5224 160-80v-6l-160 80z" opacity=".11"/><path d="m7410-5282v24l60 30 160-80v-24l-60-30z" fill="#cc291f"/><path d="m7470-5228-60-30v-24l60 30z" opacity=".29"/><path d="m7470-5228 160-80v-24l-160 80z" opacity=".11"/><path d="m7560-5372v15l60 30 10-5v-15l-60-30z" fill="#cc291f"/><path d="m7620-5327-60-30v-15l60 30z" opacity=".29"/><path d="m7620-5327 10-5v-15l-10 5z" opacity=".11"/><path d="m7492-5368v45l12 6 68-34v-45l-12-6z" fill="#cc291f"/><path d="m7504-5317-12-6v-45l12 6z" opacity=".29"/><path d="m7504-5317 68-34v-45l-68 34z" opacity=".11"/><path d="m7420-5332v45l12 6 68-34v-45l-12-6z" fill="#cc291f"/><path d="m7432-5281-12-6v-45l12 6z" opacity=".29"/><path d="m7432-5281 68-34v-45l-68 34z" opacity=".11"/><path d="m7410-5297v15l60 30 10-5v-15l-60-30z" fill="#cc291f"/><path d="m7470-5252-60-30v-15l60 30z" opacity=".29"/><path d="m7470-5252 10-5v-15l-10 5z" opacity=".11"/><path d="m7561-5365c2.2-3.1 23.7-.5 34-3 5.5 4.2 6.8 28.8 4 33-5.3-1.7-31.2-.3-39 1 1.3-9.7 2.3-22.5 1-31z" fill="#f8ebcb"/><path d="m7595.5-5367.6c4.9 5.1 3.2 25.5.5 29.6-5.3-1.7-28.2 2.7-36 4 7.8-1.3 33.7-2.7 39-1 2.7-4 1.6-27.3-3.5-32.6z" opacity=".15"/></g><g transform="matrix(.1 0 0 .1 752 544)"><path d="m-7248.5-5362.3c-10.1-5.8-23-7-34.9-1-28.5 14.3-46.6 43.5-46.6 75.5v152.8l4 1.8v.2l100-50v-145.3c0-15.9-9.6-28.5-22.5-34z" fill="#f8ebcb"/><path d="m-7236-5178-80 40v-144.4c0-27.9 15.8-53.5 40.8-66 18-9 39.2 4.1 39.2 24.2z" fill="#762c07"/><path d="m-7242-5181v-146.1c0-9.7-5-17.8-12.1-22.6 10.2 3.6 18.1 13.3 18.1 25.6v146.1l-80 40v-6z" opacity=".3"/><path d="m-7326-5133-4-2v-153l4 2z" opacity=".11"/><g fill="#825012"><path d="m-7285.9-5333c-14.8 7.4-24.1 22.5-24.1 39v13l28-14v-40z"/><path d="m-7273.9-5339-2.1 1.1v39.9l28-14v-11c0-13.3-14-21.9-25.9-16z"/><path d="m-7310-5275v36l28-14v-36z"/><path d="m-7310-5233v36l28-14v-36z"/><path d="m-7310-5191v36l28-14v-36z"/><path d="m-7276-5292v36l28-14v-36z"/><path d="m-7276-5250v36l28-14v-36z"/><path d="m-7276-5208v36l28-14v-36z"/></g><path d="m-7285.9-5333c-14.8 7.4-24.1 22.5-24.1 39v13l28-14v-40zm-20.1 36.4c0-13.7 7.7-26.2 20-32.4v32l-20 10z" opacity=".3"/><path d="m-7273.9-5339-2.1 1.1v39.9l28-14v-11c0-13.3-14-21.9-25.9-16zm1.9 3.1c9.2-4.6 20 2.1 20 12.4v9.6l-20 10z" opacity=".3"/><path d="m-7310-5275v36l28-14v-36zm4 2 20-10v28l-20 10z" opacity=".3"/><path d="m-7310-5233v36l28-14v-36zm4 2 20-10v28l-20 10z" opacity=".3"/><path d="m-7310-5191v36l28-14v-36zm4 2 20-10v28l-20 10z" opacity=".3"/><path d="m-7276-5292v36l28-14v-36zm4 2 20-10v28l-20 10z" opacity=".3"/><path d="m-7276-5250v36l28-14v-36zm4 2 20-10v28l-20 10z" opacity=".3"/><path d="m-7304-5240-8 4v-6l-4 2v21l4-2v-12l8-4z" fill="#999"/><path d="m-7276-5208v36l28-14v-36zm4 2 20-10v28l-20 10z" opacity=".3"/><path d="m-7326-5133 100-50v-145.3c0-27.4-28.8-45.2-53.3-33-28.6 14.3-46.7 43.5-46.7 75.5z" opacity=".29"/></g><g transform="matrix(.1 0 0 .1 736 552)"><path d="m-7241.7-5359.1c-8.3-5-20.3-4.8-33.6 1.9l-9.4 4.7c-25 12.5-45.3 42.9-45.3 68v94.7l4 1.9 100-50v-94.7c0-13.8-6.1-23-15.7-26.5z" fill="#f8ebcb"/><path d="m-7276-5343c-22.1 11-40 37.9-40 60v80l80-40v-80c0-22.1-17.9-31-40-20z" fill="#656565"/><path d="m-7316-5203 80-40v-80z" fill="#fff" opacity=".2"/><path d="m-7276-5343c22.1-11 40-2.1 40 20v10c0-22.1-17.9-31-40-20s-40 37.9-40 60v-10c0-22.1 17.9-49 40-60z" opacity=".15"/><path d="m-7298-5325.4c3.1-3.6 6.4-6.9 10-9.8v116.5l20-10v-117.5c3.4-1 6.7-1.6 10-1.9v114.4l20-10v-80c0-10.6-4.1-18.1-10.8-21.9-.3-.2-.7-.5-1-.7 8.5 3.1 13.8 11.2 13.8 23.3v80l-80 40v-1.7l18-9z" opacity=".2"/><path d="m-7234-5324-22 11v-40l-10 5v40l-20 10v-40l-10 5v40l-22 11v10l22-11v72l10-5v-72l20-10v72l10-5v-72l22-11z" fill="#f8ebcb"/><path d="m-7271.3-5355.3-9.4 4.7c-25 12.5-45.3 42.9-45.3 68v94.6l100-50v-94.7c0-25-20.3-35.1-45.3-22.6z" opacity=".29"/><path d="m-7326-5188-4-1.9v-95.1l4 2z" opacity=".11"/></g><g transform="matrix(.1 0 0 .1 742 560)"><path d="m-7250-5210 80-40-60-30-80 40z" opacity=".2"/><path d="m-7252-5211 2 1 2-1 2-17-4-2-4 2z" fill="#825012"/><path d="m-7252-5211 2 1v-16l-4-2z" opacity=".11"/><path d="m-7250-5210 2-1 2-17-4 2z" opacity=".29"/><path d="m-7174-5250 2 1 2-1v-16l-4-2-4 2z" fill="#825012"/><path d="m-7174-5250 2 1-2-15-4-2z" opacity=".11"/><path d="m-7172-5249 2-1v-16l-4 2z" opacity=".29"/><path d="m-7310-5240 2 1 2-1 4-16-4-2-4 2z" fill="#825012"/><path d="m-7310-5240 2 1 2-15-4-2z" opacity=".11"/><path d="m-7308-5239 2-1 4-16-4 2z" opacity=".29"/><path d="m-7310-5260v6l60 30 80-40v-6l-60-30z" fill="#825012"/><path d="m-7250-5224-60-30v-6l60 30z" opacity=".11"/><path d="m-7250-5224 80-40v-6l-80 40z" opacity=".29"/><path d="m-7310-5282v24l60 30 80-40v-24l-60-30z" fill="#cc291f"/><path d="m-7250-5228-60-30v-24l60 30z" opacity=".11"/><path d="m-7250-5228 80-40v-24l-80 40z" opacity=".29"/><path d="m-7240-5332v15l60 30 10-5v-15l-60-30z" fill="#cc291f"/><path d="m-7180-5287-60-30v-15l60 30z" opacity=".11"/><path d="m-7180-5287 10-5v-15l-10 5z" opacity=".29"/><path d="m-7300-5332v45l12 6 60-30v-45l-12-6z" fill="#cc291f"/><path d="m-7288-5281-12-6v-45l12 6z" opacity=".11"/><path d="m-7288-5281 60-30v-45l-60 30z" opacity=".29"/><path d="m-7310-5297v15l60 30 10-5v-15l-60-30z" fill="#cc291f"/><path d="m-7250-5252-60-30v-15l60 30z" opacity=".11"/><path d="m-7250-5252 10-5v-15l-10 5z" opacity=".29"/><path d="m-7239-5325c2.2-3.1 23.7-.5 34-3 5.5 4.2 6.8 28.8 4 33-5.3-1.7-31.2-.3-39 1 1.3-9.7 2.3-22.5 1-31z" fill="#f8ebcb"/><path d="m-7204.5-5327.6c4.9 5.1 3.2 25.5.5 29.6-5.3-1.7-28.2 2.7-36 4 7.8-1.3 33.7-2.7 39-1 2.7-4 1.6-27.3-3.5-32.6z" opacity=".15"/></g><ellipse cx="31.0025" cy="41.00375" opacity=".2" rx="6.125" ry="3.0625" stroke-width=".0875"/><g transform="matrix(.0875 0 0 .0875 760 571)"><g><path d="m-8311.4-6137.1c-2.8 0-5 1.1-5 2.5l35 97c0 1.4 2.2 2.5 5 2.5s5-1.1 5-2.5l-35-97c0-1.4-2.2-2.5-5-2.5z" fill="#825012"/><path d="m-8311.4-6132.1c-2.8 0-5-1.1-5-2.5l35 97c0 1.4 2.2 2.5 5 2.5s5-1.1 5-2.5l-35-97c0 1.4-2.2 2.5-5 2.5z" opacity=".2"/></g><g><path d="m-8311.4-6144.1c-2.8 0-5 1.1-5 2.5l35 63c0 1.4 2.2 2.5 5 2.5s5-1.1 5-2.5l-35-63c0-1.4-2.2-2.5-5-2.5z" fill="#825012"/><path d="m-8311.4-6139.1c-2.8 0-5-1.1-5-2.5l35 63c0 1.4 2.2 2.5 5 2.5s5-1.1 5-2.5l-35-63c0 1.4-2.2 2.5-5 2.5z" opacity=".2"/></g><g><path d="m-8351.4-6137.1c2.8 0 5 1.1 5 2.5l-35 97c0 1.4-2.2 2.5-5 2.5s-5-1.1-5-2.5l35-97c0-1.4 2.2-2.5 5-2.5z" fill="#825012"/><path d="m-8351.4-6132.1c2.8 0 5-1.1 5-2.5l-35 97c0 1.4-2.2 2.5-5 2.5s-5-1.1-5-2.5l35-97c0 1.4 2.2 2.5 5 2.5z" opacity=".2"/></g><g><path d="m-8351.4-6144.1c2.8 0 5 1.1 5 2.5l-35 63c0 1.4-2.2 2.5-5 2.5s-5-1.1-5-2.5l35-63c0-1.4 2.2-2.5 5-2.5z" fill="#825012"/><path d="m-8351.4-6139.1c2.8 0 5-1.1 5-2.5l-35 63c0 1.4-2.2 2.5-5 2.5s-5-1.1-5-2.5l35-63c0 1.4 2.2 2.5 5 2.5z" opacity=".2"/></g><g><path d="m-8331.4-6177.1c-44.2 0-80 17.9-80 40v10c0 22.1 35.8 40 80 40s80-17.9 80-40v-10c0-22.1-35.8-40-80-40z" fill="#825012"/><path d="m-8331.4-6097.1c-44.2 0-80-17.9-80-40v10c0 22.1 35.8 40 80 40s80-17.9 80-40v-10c0 22.1-35.8 40-80 40z" opacity=".2"/></g></g><g transform="matrix(-.1 0 0 .1 766 570)"><path d="m7470-5210 80-40-60-30-80 40z" opacity=".2"/><path d="m7468-5211 2 1 2-1 2-17-4-2-4 2z" fill="#825012"/><path d="m7468-5211 2 1v-16l-4-2z" opacity=".29"/><path d="m7470-5210 2-1 2-17-4 2z" opacity=".11"/><path d="m7546-5250 2 1 2-1v-16l-4-2-4 2z" fill="#825012"/><path d="m7546-5250 2 1-2-15-4-2z" opacity=".29"/><path d="m7548-5249 2-1v-16l-4 2z" opacity=".11"/><path d="m7410-5240 2 1 2-1 4-16-4-2-4 2z" fill="#825012"/><path d="m7410-5240 2 1 2-15-4-2z" opacity=".29"/><path d="m7412-5239 2-1 4-16-4 2z" opacity=".11"/><path d="m7410-5260v6l60 30 80-40v-6l-60-30z" fill="#825012"/><path d="m7470-5224-60-30v-6l60 30z" opacity=".29"/><path d="m7470-5224 80-40v-6l-80 40z" opacity=".11"/><path d="m7410-5282v24l60 30 80-40v-24l-60-30z" fill="#cc291f"/><path d="m7470-5228-60-30v-24l60 30z" opacity=".29"/><path d="m7470-5228 80-40v-24l-80 40z" opacity=".11"/><path d="m7480-5332v15l60 30 10-5v-15l-60-30z" fill="#cc291f"/><path d="m7540-5287-60-30v-15l60 30z" opacity=".29"/><path d="m7540-5287 10-5v-15l-10 5z" opacity=".11"/><path d="m7440-5292c2.2-3.1 23.7-.5 34-3 5.5 4.2 6.8 28.8 4 33-5.3-1.7-26.5.5-36-6-2.8-9.5-.7-15.5-2-24z" fill="#f8ebcb"/><path d="m7468-5308v45l12 6 60-30v-45l-12-6z" fill="#cc291f"/><path d="m7480-5257-12-6v-45l12 6z" opacity=".29"/><path d="m7480-5257 60-30v-45l-60 30z" opacity=".11"/><path d="m7410-5297v15l60 30 10-5v-15l-60-30z" fill="#cc291f"/><path d="m7470-5252-60-30v-15l60 30z" opacity=".29"/><path d="m7470-5252 10-5v-15l-10 5z" opacity=".11"/></g><g transform="matrix(.1 0 0 .1 760 574)"><path d="m-7250-5210 160-80-60-30-160 80z" opacity=".2"/><path d="m-7252-5211 2 1 2-1 2-17-4-2-4 2z" fill="#825012"/><path d="m-7252-5211 2 1v-16l-4-2z" opacity=".11"/><path d="m-7250-5210 2-1 2-17-4 2z" opacity=".29"/><path d="m-7094-5290 2 1 2-1v-16l-4-2-4 2z" fill="#825012"/><path d="m-7094-5290 2 1-2-15-4-2z" opacity=".11"/><path d="m-7092-5289 2-1v-16l-4 2z" opacity=".29"/><path d="m-7310-5240 2 1 2-1 4-16-4-2-4 2z" fill="#825012"/><path d="m-7310-5240 2 1 2-15-4-2z" opacity=".11"/><path d="m-7308-5239 2-1 4-16-4 2z" opacity=".29"/><path d="m-7310-5260v6l60 30 160-80v-6l-60-30z" fill="#825012"/><path d="m-7250-5224-60-30v-6l60 30z" opacity=".11"/><path d="m-7250-5224 160-80v-6l-160 80z" opacity=".29"/><path d="m-7310-5282v24l60 30 160-80v-24l-60-30z" fill="#cc291f"/><path d="m-7250-5228-60-30v-24l60 30z" opacity=".11"/><path d="m-7250-5228 160-80v-24l-160 80z" opacity=".29"/><path d="m-7160-5372v15l60 30 10-5v-15l-60-30z" fill="#cc291f"/><path d="m-7100-5327-60-30v-15l60 30z" opacity=".11"/><path d="m-7100-5327 10-5v-15l-10 5z" opacity=".29"/><path d="m-7180-5344v45l12 6 68-34v-45l-12-6z" fill="#cc291f"/><path d="m-7168-5293-12-6v-45l12 6z" opacity=".11"/><path d="m-7168-5293 68-34v-45l-68 34z" opacity=".29"/><path d="m-7280-5292c2.2-3.1 23.7-.5 34-3 5.5 4.2 6.8 28.8 4 33-5.3-1.7-26.5.5-36-6-2.8-9.5-.7-15.5-2-24z" fill="#f8ebcb"/><path d="m-7252-5308v45l12 6 68-34v-45l-12-6z" fill="#cc291f"/><path d="m-7240-5257-12-6v-45l12 6z" opacity=".11"/><path d="m-7240-5257 68-34v-45l-68 34z" opacity=".29"/><path d="m-7310-5297v15l60 30 10-5v-15l-60-30z" fill="#cc291f"/><path d="m-7250-5252-60-30v-15l60 30z" opacity=".11"/><path d="m-7250-5252 10-5v-15l-10 5z" opacity=".29"/></g><g transform="matrix(.875 0 0 .875 786 560)"><path d="m-833.1-601.7c-1.7 0-3 .7-3 1.5v6c0 .8 1.3 1.5 3 1.5s3-.7 3-1.5v-6c0-.8-1.3-1.5-3-1.5z" fill="#f8ebcb"/><path d="m-833.1-598.7c-1.7 0-3-.7-3-1.5v6c0 .8 1.3 1.5 3 1.5s3-.7 3-1.5v-6c0 .8-1.3 1.5-3 1.5z" opacity=".2"/><ellipse cx="-833.1" cy="-600.2" fill="#825012" rx="2.3" ry=".9"/><path d="m-832.1-599.7.7-.5s.7-4.1.5-6.2-.4-3-.4-3-.7 2.7-.8 4.7 0 5 0 5z" fill="#9c3"/><path d="m-832.1-599.7.7-.5s.7-4.1.5-6.2-.4-2.5-.4-2.5-.5 2.2-.6 4.2-.2 5-.2 5z" fill="#28896d"/><path d="m-832.1-600.2.7.3s1.2-2.1 1.4-3.8.4-4.9.4-4.9-1.2 1.7-1.6 4.2-.9 4.2-.9 4.2z" fill="#28896d"/><path d="m-831.8-600 .8-.1s1.6-7 1.7-9.7-.7-5.7-.7-5.7-.4 5.3-.8 7.9-1 7.6-1 7.6z" fill="#9c3"/><g fill="#28896d"><path d="m-831.8-600 .8-.1s1.1-5.8 1.4-8.5c.4-3.4-.2-5.1-.2-5.1s-.4 3.6-.8 6.2-1.2 7.5-1.2 7.5z"/><path d="m-832.9-600.1.6.3.6-.4s-.4-4.4-.3-6.2.5-5.7.5-5.7-1.2 3-1.7 4.6.3 7.4.3 7.4z"/><path d="m-834.5-600.1.3.1.5-.6s.1-1.4-.3-3.2c-.5-1.9-2.4-5.5-2.4-5.5s.9 4.4 1.1 5.7c.3 1.4.8 3.5.8 3.5z"/><path d="m-834.9-599.7.2.1.3-.2s-.1-1.9-.4-3.1c-.3-1.3-1-3.1-1-3.1s.1 1.2.1 2.5.8 3.8.8 3.8z"/></g><path d="m-834.7-599.9.9-.2s-.2-3.2-1.5-5.4-2.4-3.7-2.4-3.7-.1 2.3 1.5 5.2 1.5 4.1 1.5 4.1z" fill="#9c3"/><path d="m-834.7-599.9.9-.2s-.3-3-1.5-5.1-2.2-3.3-2.2-3.3-.2 1.5 1.4 4.4 1.4 4.2 1.4 4.2z" fill="#28896d"/><path d="m-834.3-600.2 1-.2s-.4-3.9-1.3-6.4-2.9-5.1-2.9-5.1 1 3.8 1.5 5.3 1.7 6.4 1.7 6.4z" fill="#9c3"/><path d="m-834.2-599.9 1-.2s-.5-4.2-1.4-6.7-2.3-3.9-2.3-3.9.6 2.6 1.1 4.2 1.6 6.6 1.6 6.6z" fill="#28896d"/><path d="m-833.9-600.6h.8s.7-7.7.9-10.1.5-5.8.5-5.8-1.9 6.8-2.1 9.1c-.2 2.4-.1 6.8-.1 6.8z" fill="#9c3"/><path d="m-833.9-600.4.8-.2s.6-7.6.8-10 .4-4.3.4-4.3-1.4 5.4-1.6 7.7c-.3 2.4-.4 6.8-.4 6.8z" fill="#28896d"/><path d="m-833.4-599.9 1.1-.4s-.6-6.2-1.1-7.6c-.5-1.5-2.9-6.4-2.9-6.4s1.5 6.6 1.7 8.1 1.2 6.3 1.2 6.3z" fill="#9c3"/><path d="m-833.5-599.9 1.3-.3s-.9-6.4-1.4-7.8c-.5-1.5-2-4.8-2-4.8s1 5 1.2 6.5c.1 1.6.9 6.4.9 6.4z" fill="#28896d"/></g></svg>