<svg enable-background="new 0 0 128 96" height="96" viewBox="0 0 128 96" width="128" xmlns="http://www.w3.org/2000/svg"><path d="m64 0-12 4-4 4-8 4-8 8h-8l-8 4-4 4-12 4v32l12 4 4 4 8 4 8 8h8l8 4 4 4 12 4 12-4 4-4 8-4h8l8-8 8-4 4-4 12-4v-32l-12-4-4-4-8-4h-8l-8-8-8-4-4-4z" fill="#656565"/><path d="m0 32 12 4 4 4 8 4 8 8h8l8 4 4 4 12 4v32l-12-4-4-4-8-4h-8l-8-8-8-4-4-4-12-4z" opacity=".11"/><path d="m128 32v32l-12 4-4 4-8 4-8 8h-8l-8 4-4 4-12 4v-32l12-4 4-4 8-4h8l8-8 8-4 4-4z" opacity=".29"/><path d="m80 56 8-4v32l-8 4z" fill="#fff" opacity=".1"/><path d="m112 40 4-4v32l-4 4z" fill="#fff" opacity=".1"/><path d="m116 36 12-4v32l-12 4z" opacity=".1"/><path d="m104 44-8 8v32l8-8z" opacity=".15"/><path d="m76 92-12 4v-32l12-4z" opacity=".1"/><path d="m48 56-8-4v32l8 4z" fill="#fff" opacity=".1"/><path d="m16 40-4-4v32l4 4z" fill="#fff" opacity=".1"/><path d="m12 36-12-4v32l12 4z" opacity=".1"/><path d="m24 44 8 8v32l-8-8z" opacity=".15"/><path d="m52 92 12 4v-32l-12-4z" opacity=".1"/></svg>